<?xml version="1.0" encoding="UTF-8" standalone="no"?>
<svg
   xmlns:dc="http://purl.org/dc/elements/1.1/"
   xmlns:cc="http://creativecommons.org/ns#"
   xmlns:rdf="http://www.w3.org/1999/02/22-rdf-syntax-ns#"
   xmlns:svg="http://www.w3.org/2000/svg"
   xmlns="http://www.w3.org/2000/svg"
   id="svg4551"
   version="1.1"
   viewBox="0 0 44.248562 27.654961"
   height=""
   width="">
  <defs
     id="defs4545" />
  <metadata
     id="metadata4548">
    <rdf:RDF>
      <cc:Work
         rdf:about="">
        <dc:format>image/svg+xml</dc:format>
        <dc:type
           rdf:resource="http://purl.org/dc/dcmitype/StillImage" />
        <dc:title></dc:title>
      </cc:Work>
    </rdf:RDF>
  </metadata>
  <g
     transform="translate(-34.572148,-169.02371)"
     id="layer1">
    <path
       d="m 78.82071,195.2043 c 0,0.81432 -0.660752,1.47437 -1.474962,1.47437 H 36.046406 c -0.814211,0 -1.474258,-0.66005 -1.474258,-1.47437 v -24.70633 c 0,-0.81421 0.660047,-1.47426 1.474258,-1.47426 h 41.299342 c 0.81421,0 1.474962,0.66005 1.474962,1.47426 v 24.70633"
       style="fill:#0078a9;fill-opacity:1;fill-rule:nonzero;stroke:none;stroke-width:0.03527778"
       id="path1374" />
    <path
       d="m 48.300848,182.20737 v -0.44238 l -0.211667,0.44238 h -1.831975 l -0.230364,-0.47484 v 0.47484 h -3.424414 l -0.404283,-0.95779 h -0.686153 l -0.428625,0.95779 h -1.775531 v -2.89101 l 1.301398,-2.94499 h 2.492022 l 0.350308,0.83432 v -0.82832 h 3.047295 l 0.67063,1.40511 0.655814,-1.41111 h 9.621308 c 0,0 0.504472,-0.007 0.836789,0.22648 l -0.0021,-0.22648 h 2.423937 v 0.31891 c 0,0 0.436032,-0.31891 1.080205,-0.31891 0.644173,0 4.277431,0 4.277431,0 l 0.375692,0.84667 v -0.84667 h 2.740728 l 0.497417,0.84667 v -0.84667 h 2.620433 v 5.84129 h -2.692045 l -0.632531,-1.01811 v 1.01282 h -3.345744 l -0.470606,-1.04316 h -0.655815 l -0.440971,1.04316 h -2.025298 c 0,0 -0.754943,-0.01 -1.321505,-0.41487 0,0.21238 0,0.41487 0,0.41487 h -4.031192 c 0,0 0,-1.16452 0,-1.36278 0,-0.19791 -0.151694,-0.18415 -0.151694,-0.18415 h -0.147461 v 1.54693 h -8.081433"
       style="fill:#ffffff;fill-opacity:1;fill-rule:nonzero;stroke:none;stroke-width:0.03527778"
       id="path1376" />
    <path
       d="m 46.288956,183.47243 h 5.296958 l 0.764822,0.86537 0.782109,-0.86537 h 4.072819 c 0,0 0.382411,0.01 0.745419,0.2032 v -0.2032 c 0,0 3.167592,0 3.626909,0 0.460375,0 0.847018,0.23001 0.847018,0.23001 v -0.23001 h 4.661958 v 0.21202 c 0,0 0.331965,-0.21202 0.778582,-0.21202 0.445558,0 3.037065,0 3.037065,0 v 0.21202 c 0,0 0.38241,-0.21202 0.787045,-0.21202 0.40499,0 2.384425,0 2.384425,0 v 5.50439 c 0,0 -0.313267,0.35486 -0.96167,0.35486 h -3.143957 v -0.17494 c 0,0 -0.299156,0.17494 -0.755298,0.17494 -0.455435,0 -8.35166,0 -8.35166,0 0,0 0,-1.2816 0,-1.42271 0,-0.14006 -0.06068,-0.16546 -0.185208,-0.16546 h -0.115006 v 1.58817 h -2.610203 v -1.57829 c 0,0 -0.289277,0.15558 -0.772936,0.15558 -0.482952,0 -0.938389,0 -0.938389,0 v 1.42271 h -3.217333 l -0.731661,-0.89284 -0.782461,0.89284 h -5.219347 v -5.85925"
       style="fill:#ffffff;fill-opacity:1;fill-rule:nonzero;stroke:none;stroke-width:0.03527778"
       id="path1378" />
    <path
       d="m 62.984517,184.35085 h 3.324576 v 0.89147 h -2.306812 v 0.77752 h 2.241902 v 0.78528 h -2.241902 v 0.81774 h 2.306812 v 0.8696 h -3.324576 v -4.14161"
       style="fill:#0078a9;fill-opacity:1;fill-rule:nonzero;stroke:none;stroke-width:0.03527778"
       id="path1380" />
    <path
       d="m 72.731415,185.96445 c 1.249185,0.0642 1.35396,0.68827 1.35396,1.35397 0,0.77575 -0.638175,1.19274 -1.303867,1.19274 h -2.135716 v -0.8883 h 1.6637 c 0.282575,0 0.703085,0 0.703085,-0.39758 0,-0.18873 -0.07373,-0.30903 -0.374296,-0.34078 -0.133704,-0.0194 -0.627591,-0.0469 -0.702733,-0.0483 -1.128538,-0.0296 -1.392063,-0.59126 -1.392063,-1.27459 0,-0.77646 0.545748,-1.2012 1.212146,-1.2012 h 2.135362 v 0.88758 H 72.32819 c -0.3556,0.004 -0.739423,-0.042 -0.739423,0.35984 0,0.254 0.189441,0.30515 0.430035,0.32843 0.08326,0 0.638175,0.0289 0.712613,0.0282"
       style="fill:#0078a9;fill-opacity:1;fill-rule:nonzero;stroke:none;stroke-width:0.03527778"
       id="path1382" />
    <path
       d="m 68.902365,185.96445 c 1.249891,0.0642 1.354666,0.68827 1.354666,1.35397 0,0.77575 -0.637471,1.19274 -1.303514,1.19274 h -2.135365 v -0.8883 h 1.664054 c 0.281869,0 0.702734,0 0.702734,-0.39758 0,-0.18873 -0.07444,-0.30903 -0.375005,-0.34078 -0.13335,-0.0194 -0.628295,-0.0469 -0.702027,-0.0483 -1.129948,-0.0296 -1.391002,-0.59126 -1.391002,-1.27459 0,-0.77646 0.545042,-1.2012 1.210379,-1.2012 h 2.135365 v 0.88758 h -1.5621 c -0.355952,0.004 -0.739775,-0.042 -0.739775,0.35984 0,0.254 0.190148,0.30515 0.430742,0.32843 0.08255,0 0.637116,0.0289 0.710848,0.0282"
       style="fill:#0078a9;fill-opacity:1;fill-rule:nonzero;stroke:none;stroke-width:0.03527778"
       id="path1384" />
    <path
       d="m 56.503636,186.2428 h -1.266472 v -0.99413 h 1.270353 c 0.425803,0 0.560211,0.2727 0.560211,0.47625 0,0.27763 -0.148167,0.51788 -0.564092,0.51788 z m -2.29235,1.86125 -1.460852,-1.72896 1.460852,-1.61784 z m -3.886905,-0.48119 H 47.97982 v -0.81774 h 2.242608 v -0.78528 H 47.97982 v -0.77752 l 2.472619,0.006 0.990247,1.12712 z m 6.52145,-3.26319 h -3.568347 l -1.165225,1.28517 -1.127125,-1.29399 h -4.007909 v 4.14161 h 3.877734 l 1.220963,-1.36842 1.192037,1.3783 h 1.951213 v -1.40653 h 1.36772 c 0.52705,0 1.489075,-0.0176 1.489075,-1.46967 0,-1.0354 -0.730603,-1.26647 -1.230136,-1.26647"
       style="fill:#0078a9;fill-opacity:1;fill-rule:nonzero;stroke:none;stroke-width:0.03527778"
       id="path1386" />
    <path
       d="m 60.880197,186.18706 h -1.266472 v -0.93839 h 1.270706 c 0.425096,0 0.559504,0.2727 0.559504,0.47625 0,0.27693 -0.14746,0.46214 -0.563738,0.46214 z m 0.877711,0.42862 c 0.555273,-0.27693 0.702734,-0.64699 0.702734,-1.14653 0,-0.88688 -0.720725,-1.10878 -1.220259,-1.10878 h -2.643716 v 4.14197 h 1.017058 v -1.46156 h 1.331383 c 0.351367,0 0.489657,0.35137 0.498827,0.70273 l 0.02681,0.75883 h 0.989894 l -0.03704,-0.8509 c 0,-0.6664 -0.18415,-0.98072 -0.665692,-1.03576"
       style="fill:#0078a9;fill-opacity:1;fill-rule:nonzero;stroke:none;stroke-width:0.03527778"
       id="path1388" />
    <path
       d="m 60.020831,181.3473 v -4.14655 h -1.016706 v 4.14655 h 1.016706"
       style="fill:#0078a9;fill-opacity:1;fill-rule:nonzero;stroke:none;stroke-width:0.03527778"
       id="path1390" />
    <path
       d="m 50.679981,177.20569 h 3.323166 v 0.89147 h -2.306108 v 0.77752 h 2.241197 v 0.78528 h -2.241197 v 0.81809 h 2.306108 v 0.86925 h -3.323166 v -4.14161"
       style="fill:#0078a9;fill-opacity:1;fill-rule:nonzero;stroke:none;stroke-width:0.03527778"
       id="path1392" />
    <path
       d="m 56.889928,179.03237 h -1.26612 v -0.93839 h 1.271059 c 0.424391,0 0.559505,0.2727 0.559505,0.4759 0,0.27764 -0.148166,0.46249 -0.564444,0.46249 z m 0.878769,0.42863 c 0.555273,-0.27623 0.702734,-0.647 0.702734,-1.14653 0,-0.88759 -0.721431,-1.10878 -1.220259,-1.10878 H 54.60675 v 4.14161 h 1.017058 v -1.4605 h 1.331031 c 0.351367,0 0.490714,0.35066 0.499533,0.70203 l 0.02752,0.75847 h 0.989542 l -0.03669,-0.8509 c 0,-0.66534 -0.185209,-0.97966 -0.666045,-1.0354"
       style="fill:#0078a9;fill-opacity:1;fill-rule:nonzero;stroke:none;stroke-width:0.03527778"
       id="path1394" />
    <path
       d="m 41.17015,179.52908 0.606425,-1.44744 0.631825,1.44744 z m 7.164211,-2.32339 -1.247775,2.77812 -1.243541,-2.77812 h -1.594556 v 3.98886 l -1.774825,-3.98886 H 41.12817 l -1.81222,4.14161 h 1.072797 l 0.396875,-0.92463 h 2.029884 l 0.402519,0.92463 h 2.046817 v -3.07411 l 1.359606,3.07411 h 0.92463 l 1.391003,-3.02331 v 3.02331 h 1.017058 v -4.14161 h -1.622778"
       style="fill:#0078a9;fill-opacity:1;fill-rule:nonzero;stroke:none;stroke-width:0.03527778"
       id="path1396" />
    <path
       d="m 64.267923,179.5312 0.605719,-1.4478 0.638175,1.4478 z m 6.246283,-2.32763 v 2.86773 L 68.799,177.20357 h -1.502833 v 3.88973 l -1.73214,-3.88761 h -1.345494 l -1.400881,3.20816 c 0,0 -0.59196,0 -0.651934,-0.0145 -0.244475,-0.0505 -0.627591,-0.22331 -0.632528,-0.95356 v -0.30057 c 0,-0.97084 0.527402,-1.04175 1.203325,-1.04175 h 0.627591 v -0.89994 H 62.03625 c -0.46214,0 -1.468261,0.35278 -1.502128,2.05423 -0.02328,1.14652 0.47625,2.09161 1.60408,2.09161 h 1.340908 l 0.396875,-0.92463 h 2.02918 l 0.402518,0.92463 h 2.006248 v -3.03282 l 1.830211,3.03283 h 1.386768 v -4.14585 h -1.016704"
       style="fill:#0078a9;fill-opacity:1;fill-rule:nonzero;stroke:none;stroke-width:0.03527778"
       id="path1398" />
  </g>
</svg>
