<?xml version="1.0" encoding="UTF-8" standalone="no"?>
<!-- Generator: Adobe Illustrator 16.2.1, SVG Export Plug-In . SVG Version: 6.00 Build 0)  -->

<svg
   xmlns:dc="http://purl.org/dc/elements/1.1/"
   xmlns:cc="http://creativecommons.org/ns#"
   xmlns:rdf="http://www.w3.org/1999/02/22-rdf-syntax-ns#"
   xmlns:svg="http://www.w3.org/2000/svg"
   xmlns="http://www.w3.org/2000/svg"
   xmlns:sodipodi="http://sodipodi.sourceforge.net/DTD/sodipodi-0.dtd"
   xmlns:inkscape="http://www.inkscape.org/namespaces/inkscape"
   version="1.1"
   id="Layer_1"
   x="0px"
   y="0px"
   width="155.416"
   height="155.416"
   viewBox="0 0 155.416 155.416"
   enable-background="new 0 0 512 512"
   xml:space="preserve"
   sodipodi:docname="credit-card.svg"
   inkscape:version="0.92.3 (2405546, 2018-03-11)"><metadata
   id="metadata19"><rdf:RDF><cc:Work
       rdf:about=""><dc:format>image/svg+xml</dc:format><dc:type
         rdf:resource="http://purl.org/dc/dcmitype/StillImage" /><dc:title></dc:title></cc:Work></rdf:RDF></metadata><defs
   id="defs17" /><sodipodi:namedview
   pagecolor="#ffffff"
   bordercolor="#666666"
   borderopacity="1"
   objecttolerance="10"
   gridtolerance="10"
   guidetolerance="10"
   inkscape:pageopacity="0"
   inkscape:pageshadow="2"
   inkscape:window-width="1366"
   inkscape:window-height="711"
   id="namedview15"
   showgrid="false"
   inkscape:zoom="1.84375"
   inkscape:cx="218.0339"
   inkscape:cy="125.83051"
   inkscape:window-x="0"
   inkscape:window-y="0"
   inkscape:window-maximized="1"
   inkscape:current-layer="Layer_1" />

<g
   id="g12"
   transform="matrix(0.69382143,0,0,0.581575,-99.910286,-69.9932)"
   style="stroke-width:1.57424843">
	<path
   d="m 368,216 c 0,-22.094 -17.906,-40 -40,-40 H 184 c -22.094,0 -40,17.906 -40,40 v 80 c 0,22.094 17.906,40 40,40 h 144 c 22.094,0 40,-17.906 40,-40 z M 183.594,192 h 144 c 10.438,0 19.219,6.719 22.531,16 H 161.078 c 3.313,-9.281 12.11,-16 22.516,-16 z M 352,296 c 0,13.234 -11.156,24 -24.406,24 h -144 C 170.375,320 160,309.234 160,296 v -56 h 192 z"
   id="path4"
   inkscape:connector-curvature="0"
   style="stroke-width:1.57424843" />
	<path
   d="m 183.594,272 h 64 c 4.438,0 8,-3.578 8,-8 0,-4.422 -3.562,-8 -8,-8 h -64 c -4.406,0 -8,3.578 -8,8 0,4.422 3.594,8 8,8 z"
   id="path6"
   inkscape:connector-curvature="0"
   style="stroke-width:1.57424843" />
	<path
   d="m 311.594,272 h 16 c 4.438,0 8,-3.578 8,-8 0,-4.422 -3.562,-8 -8,-8 h -16 c -4.406,0 -8,3.578 -8,8 0,4.422 3.594,8 8,8 z"
   id="path8"
   inkscape:connector-curvature="0"
   style="stroke-width:1.57424843" />
	<path
   d="m 183.594,304 h 32 c 4.438,0 8,-3.578 8,-8 0,-4.422 -3.562,-8 -8,-8 h -32 c -4.406,0 -8,3.578 -8,8 0,4.422 3.594,8 8,8 z"
   id="path10"
   inkscape:connector-curvature="0"
   style="stroke-width:1.57424843" />
</g>
</svg>