<?xml version="1.0" encoding="UTF-8" standalone="no"?>
<svg
   xmlns:dc="http://purl.org/dc/elements/1.1/"
   xmlns:cc="http://creativecommons.org/ns#"
   xmlns:rdf="http://www.w3.org/1999/02/22-rdf-syntax-ns#"
   xmlns:svg="http://www.w3.org/2000/svg"
   xmlns="http://www.w3.org/2000/svg"
   id="svg5339"
   version="1.1"
   viewBox="0 0 44.248562 27.65531"
   height=""
   width="">
  <defs
     id="defs5333" />
  <metadata
     id="metadata5336">
    <rdf:RDF>
      <cc:Work
         rdf:about="">
        <dc:format>image/svg+xml</dc:format>
        <dc:type
           rdf:resource="http://purl.org/dc/dcmitype/StillImage" />
        <dc:title></dc:title>
      </cc:Work>
    </rdf:RDF>
  </metadata>
  <g
     transform="translate(-107.89953,-101.74377)"
     id="layer1">
    <path
       d="m 152.14809,127.92377 c 0,0.81491 -0.66075,1.47531 -1.47496,1.47531 h -41.29934 c -0.81421,0 -1.47426,-0.6604 -1.47426,-1.47531 v -24.70538 c 0,-0.81457 0.66005,-1.47462 1.47426,-1.47462 h 41.29934 c 0.81421,0 1.47496,0.66005 1.47496,1.47462 v 24.70538"
       style="fill:#084d95;fill-opacity:1;fill-rule:nonzero;stroke:none;stroke-width:0.03527778"
       id="path1278" />
    <path
       d="m 131.08232,116.82785 c 2.50014,0.012 4.78225,-2.03835 4.78225,-4.5339 0,-2.72803 -2.28211,-4.61398 -4.78225,-4.61257 h -2.15265 c -2.52942,-0.001 -4.61222,1.88489 -4.61222,4.61257 0,2.49555 2.0828,4.54589 4.61222,4.5339 h 2.15265"
       style="fill:#ffffff;fill-opacity:1;fill-rule:nonzero;stroke:none;stroke-width:0.03527778"
       id="path1280" />
    <path
       d="m 128.9399,108.05885 c -2.3114,10e-4 -4.18571,1.87466 -4.18641,4.18782 7.1e-4,2.31211 1.87501,4.18536 4.18641,4.18642 2.31316,-0.001 4.18641,-1.87431 4.18712,-4.18642 -7.1e-4,-2.31316 -1.87396,-4.18676 -4.18712,-4.18782 m -2.65324,4.18782 c 0.002,-1.13065 0.70838,-2.09408 1.70321,-2.4772 v 4.95335 c -0.99483,-0.38312 -1.70109,-1.3462 -1.70321,-2.47615 m 3.60362,2.47686 v -4.95406 c 0.99554,0.38206 1.70251,1.34585 1.70392,2.4772 -0.001,1.13066 -0.70838,2.09409 -1.70392,2.47686"
       style="fill:#084d95;fill-opacity:1;fill-rule:nonzero;stroke:none;stroke-width:0.03527778"
       id="path1282" />
    <path
       d="m 119.16619,117.68086 c 0,-0.43497 -0.22719,-0.40604 -0.4452,-0.41063 v -0.12594 c 0.18909,0.01 0.38241,0.01 0.5715,0.01 0.20249,0 0.47801,-0.01 0.83643,-0.01 1.25201,0 1.93393,0.83608 1.93393,1.69298 0,0.47837 -0.28046,1.6824 -1.99178,1.6824 -0.24695,0 -0.47414,-0.01 -0.70168,-0.01 -0.21766,0 -0.43039,0.005 -0.6484,0.01 v -0.12524 c 0.29033,-0.0293 0.43074,-0.0388 0.4452,-0.36759 z m 0.47343,2.26836 c 0,0.37254 0.2667,0.41593 0.50306,0.41593 1.04458,0 1.38818,-0.78811 1.38818,-1.50883 0,-0.90417 -0.58067,-1.55681 -1.51377,-1.55681 -0.19826,0 -0.28998,0.0141 -0.37747,0.0194 v 2.63031"
       style="fill:#ffffff;fill-opacity:1;fill-rule:nonzero;stroke:none;stroke-width:0.03527778"
       id="path1284" />
    <path
       d="m 122.23254,120.39443 h 0.0914 c 0.13582,0 0.23248,0 0.23248,-0.16016 v -1.31057 c 0,-0.21237 -0.0727,-0.24165 -0.25153,-0.33831 v -0.0769 c 0.22648,-0.0684 0.49812,-0.15981 0.51717,-0.17392 0.0339,-0.0198 0.0628,-0.0247 0.0871,-0.0247 0.024,0 0.0335,0.0293 0.0335,0.0677 v 1.85667 c 0,0.16016 0.10619,0.16016 0.242,0.16016 h 0.0825 v 0.12523 c -0.16474,0 -0.33408,-0.01 -0.50764,-0.01 -0.17427,0 -0.3489,0.005 -0.52705,0.01 z m 0.51717,-2.82893 c -0.12594,0 -0.23672,-0.11641 -0.23672,-0.242 0,-0.12171 0.11642,-0.23283 0.23672,-0.23283 0.12559,0 0.23636,0.1023 0.23636,0.23283 0,0.13053 -0.10583,0.242 -0.23636,0.242"
       style="fill:#ffffff;fill-opacity:1;fill-rule:nonzero;stroke:none;stroke-width:0.03527778"
       id="path1286" />
    <path
       d="m 123.7262,118.95263 c 0,-0.17851 -0.0536,-0.22649 -0.27976,-0.31856 v -0.0921 c 0.20744,-0.0674 0.4057,-0.13053 0.63747,-0.23213 0.0152,0 0.0289,0.01 0.0289,0.0483 v 0.31397 c 0.27623,-0.19755 0.5133,-0.3623 0.83785,-0.3623 0.41064,0 0.55527,0.29986 0.55527,0.67698 v 1.24742 c 0,0.16016 0.1069,0.16016 0.24166,0.16016 h 0.0875 v 0.12524 c -0.17004,0 -0.33937,-0.01 -0.51259,-0.01 -0.17427,0 -0.34784,0.005 -0.52211,0.01 v -0.12524 h 0.0861 c 0.13582,0 0.23213,0 0.23213,-0.16016 v -1.25201 c 0,-0.27587 -0.16792,-0.41133 -0.4445,-0.41133 -0.15417,0 -0.40076,0.12594 -0.56127,0.23283 v 1.43051 c 0,0.16016 0.10724,0.16016 0.24236,0.16016 h 0.0868 v 0.12524 c -0.16863,0 -0.33832,-0.01 -0.51259,-0.01 -0.17357,0 -0.34784,0.005 -0.52211,0.01 v -0.12524 h 0.0875 c 0.13511,0 0.23142,0 0.23142,-0.16016 v -1.28164"
       style="fill:#ffffff;fill-opacity:1;fill-rule:nonzero;stroke:none;stroke-width:0.03527778"
       id="path1288" />
    <path
       d="m 126.2027,119.18546 c -0.01,0.0437 -0.01,0.11571 0,0.28011 0.0289,0.45967 0.3242,0.83678 0.71014,0.83678 0.2667,0 0.47484,-0.14534 0.65334,-0.32349 l 0.0674,0.067 c -0.2226,0.29527 -0.49812,0.5461 -0.89429,0.5461 -0.76905,0 -0.92392,-0.74436 -0.92392,-1.05375 0,-0.94827 0.63782,-1.22837 0.97684,-1.22837 0.39229,0 0.81315,0.24659 0.81739,0.75918 0,0.0293 0,0.0579 -0.004,0.0871 l -0.0441,0.0293 z m 0.85548,-0.15487 c 0.12136,0 0.13512,-0.0632 0.13512,-0.121 0,-0.24695 -0.14958,-0.44485 -0.42016,-0.44485 -0.29492,0 -0.49812,0.21731 -0.55598,0.56585 h 0.84102"
       style="fill:#ffffff;fill-opacity:1;fill-rule:nonzero;stroke:none;stroke-width:0.03527778"
       id="path1290" />
    <path
       d="m 127.72105,120.39443 h 0.13018 c 0.13511,0 0.23248,0 0.23248,-0.16016 v -1.3582 c 0,-0.14993 -0.17851,-0.17921 -0.25153,-0.21837 v -0.0723 c 0.35278,-0.14993 0.5461,-0.27552 0.5902,-0.27552 0.0286,0 0.043,0.0148 0.043,0.0635 v 0.43498 h 0.0102 c 0.12065,-0.18874 0.32385,-0.49848 0.61877,-0.49848 0.12135,0 0.27552,0.0819 0.27552,0.25612 0,0.13088 -0.0917,0.24695 -0.22754,0.24695 -0.14994,0 -0.14994,-0.11607 -0.31962,-0.11607 -0.0818,0 -0.35207,0.11148 -0.35207,0.40146 v 1.13595 c 0,0.16016 0.0967,0.16016 0.23212,0.16016 h 0.27023 v 0.12523 c -0.26599,-0.005 -0.46849,-0.01 -0.67663,-0.01 -0.19826,0 -0.4011,0.005 -0.57538,0.01 v -0.12523"
       style="fill:#ffffff;fill-opacity:1;fill-rule:nonzero;stroke:none;stroke-width:0.03527778"
       id="path1292" />
    <path
       d="m 129.58301,119.84762 c 0.0624,0.31927 0.25612,0.5902 0.6089,0.5902 0.2854,0 0.39123,-0.17427 0.39123,-0.3436 0,-0.57045 -1.0534,-0.387 -1.0534,-1.16558 0,-0.27094 0.21696,-0.61877 0.74966,-0.61877 0.15451,0 0.36195,0.0434 0.55139,0.14005 l 0.0335,0.49283 h -0.11148 c -0.0483,-0.30374 -0.21766,-0.47801 -0.52705,-0.47801 -0.19367,0 -0.37712,0.11112 -0.37712,0.31926 0,0.56585 1.12183,0.39123 1.12183,1.15041 0,0.31926 -0.25611,0.65758 -0.83149,0.65758 -0.19368,0 -0.42122,-0.0674 -0.58985,-0.16369 l -0.0533,-0.55598 0.0871,-0.0247"
       style="fill:#ffffff;fill-opacity:1;fill-rule:nonzero;stroke:none;stroke-width:0.03527778"
       id="path1294" />
    <path
       d="m 135.33752,118.01918 h -0.12135 c -0.0914,-0.56515 -0.49318,-0.79269 -1.0347,-0.79269 -0.55598,0 -1.36419,0.37182 -1.36419,1.53317 0,0.97684 0.69709,1.67816 1.4411,1.67816 0.47907,0 0.87594,-0.32843 0.97296,-0.83679 l 0.11112,0.0289 -0.11112,0.70591 c -0.20391,0.12629 -0.75036,0.25612 -1.06927,0.25612 -1.13136,0 -1.84644,-0.72955 -1.84644,-1.81787 0,-0.99166 0.88441,-1.7025 1.83198,-1.7025 0.39123,0 0.76905,0.12629 1.14159,0.25682 l 0.0483,0.69074"
       style="fill:#ffffff;fill-opacity:1;fill-rule:nonzero;stroke:none;stroke-width:0.03527778"
       id="path1296" />
    <path
       d="m 135.5118,120.39443 h 0.0917 c 0.13582,0 0.23212,0 0.23212,-0.16016 v -2.69311 c 0,-0.31467 -0.0723,-0.3242 -0.25682,-0.37712 v -0.0776 c 0.19403,-0.0624 0.39758,-0.14957 0.49883,-0.20814 0.0522,-0.0289 0.0914,-0.0529 0.10583,-0.0529 0.0293,0 0.0388,0.0289 0.0388,0.0677 v 3.34116 c 0,0.16016 0.1069,0.16016 0.24236,0.16016 h 0.0815 v 0.12524 c -0.16404,0 -0.33337,-0.01 -0.50729,-0.01 -0.17428,0 -0.34784,0.005 -0.52705,0.01 v -0.12524"
       style="fill:#ffffff;fill-opacity:1;fill-rule:nonzero;stroke:none;stroke-width:0.03527778"
       id="path1298" />
    <path
       d="m 138.6166,120.25367 c 0,0.0875 0.0529,0.0921 0.13511,0.0921 0.0579,0 0.13017,-0.005 0.19367,-0.005 v 0.1016 c -0.20813,0.0194 -0.60501,0.121 -0.69673,0.14923 l -0.024,-0.0141 v -0.39159 c -0.29034,0.23707 -0.51259,0.4057 -0.85655,0.4057 -0.26105,0 -0.53199,-0.16863 -0.53199,-0.57468 v -1.23825 c 0,-0.12559 -0.0187,-0.24694 -0.28927,-0.27058 v -0.0921 c 0.17356,-0.005 0.56021,-0.0339 0.62336,-0.0339 0.054,0 0.054,0.0339 0.054,0.14006 v 1.24777 c 0,0.14499 0,0.56092 0.42015,0.56092 0.16405,0 0.38171,-0.12594 0.58491,-0.29457 v -1.3014 c 0,-0.0963 -0.23213,-0.14958 -0.4057,-0.19791 v -0.0875 c 0.43463,-0.0289 0.70556,-0.0674 0.75389,-0.0674 0.0392,0 0.0392,0.0339 0.0392,0.0875 v 1.78365"
       style="fill:#ffffff;fill-opacity:1;fill-rule:nonzero;stroke:none;stroke-width:0.03527778"
       id="path1300" />
    <path
       d="m 139.57862,118.6577 c 0.19332,-0.16404 0.45473,-0.34783 0.72037,-0.34783 0.56092,0 0.89923,0.48895 0.89923,1.01529 0,0.63359 -0.46425,1.26683 -1.15535,1.26683 -0.35842,0 -0.54645,-0.11572 -0.67239,-0.16863 l -0.14464,0.11112 -0.1016,-0.0533 c 0.043,-0.28539 0.0677,-0.56585 0.0677,-0.86077 v -2.07928 c 0,-0.31467 -0.073,-0.3242 -0.25647,-0.37712 v -0.0776 c 0.19368,-0.0624 0.39617,-0.14957 0.49813,-0.20814 0.0533,-0.0289 0.091,-0.0526 0.10689,-0.0526 0.0289,0 0.0381,0.0286 0.0381,0.0674 z m 0,1.31551 c 0,0.1838 0.17427,0.49389 0.49812,0.49389 0.51788,0 0.73448,-0.50835 0.73448,-0.93909 0,-0.52176 -0.39616,-0.95709 -0.77328,-0.95709 -0.17922,0 -0.32844,0.11642 -0.45932,0.2279 v 1.17439"
       style="fill:#ffffff;fill-opacity:1;fill-rule:nonzero;stroke:none;stroke-width:0.03527778"
       id="path1302" />
    <path
       d="m 118.71569,123.33201 h 0.037 c 0.0945,0 0.19439,-0.0134 0.19439,-0.15064 v -1.37795 c 0,-0.13723 -0.0998,-0.15028 -0.19439,-0.15028 h -0.037 v -0.0794 c 0.10337,0 0.26106,0.0106 0.38982,0.0106 0.13159,0 0.28963,-0.0106 0.41275,-0.0106 v 0.0794 h -0.0363 c -0.0946,0 -0.19509,0.0131 -0.19509,0.15028 v 1.37795 c 0,0.13723 0.10054,0.15064 0.19509,0.15064 h 0.0363 v 0.079 c -0.12594,0 -0.28364,-0.0106 -0.41522,-0.0106 -0.12912,0 -0.28399,0.0106 -0.38735,0.0106 v -0.079"
       style="fill:#ffffff;fill-opacity:1;fill-rule:nonzero;stroke:none;stroke-width:0.03527778"
       id="path1304" />
    <path
       d="m 119.51826,123.42162 c -0.12664,0 -0.28363,-0.0102 -0.41522,-0.0102 -0.12911,0 -0.28328,0.0102 -0.38735,0.0102 h -0.0109 v -0.0106 -0.079 -0.012 h 0.0109 0.0363 c 0.0967,-0.002 0.18274,-0.01 0.18345,-0.13865 v -1.37795 c -7.1e-4,-0.12911 -0.0868,-0.13723 -0.18345,-0.13899 h -0.0473 v -0.0113 -0.0907 h 0.0109 c 0.10407,0 0.26106,0.0102 0.38982,0.0102 0.13159,0 0.28893,-0.0102 0.41275,-0.0102 h 0.0116 v 0.0116 0.0903 h -0.0116 -0.0363 c -0.0953,0.002 -0.18344,0.01 -0.18344,0.13899 v 1.37795 c 0,0.12912 0.0882,0.13653 0.18344,0.13865 h 0.048 v 0.012 0.0896 z m -0.0109,-0.0222 v -0.0561 h -0.0254 c -0.0938,0 -0.20602,-0.0159 -0.20672,-0.16193 v -1.37795 c 7.1e-4,-0.1457 0.11289,-0.16192 0.20672,-0.16192 h 0.0254 v -0.0561 c -0.12206,0 -0.2734,0.0106 -0.40181,0.0106 -0.12453,0 -0.27622,-0.01 -0.37818,-0.0106 v 0.0561 h 0.0247 c 0.0945,0 0.20603,0.0162 0.20603,0.16192 v 1.37795 c 0,0.14605 -0.11148,0.16193 -0.20603,0.16193 h -0.0247 v 0.0561 c 0.10196,-0.001 0.25083,-0.0106 0.37571,-0.0106 0.12806,0 0.28011,0.0102 0.40428,0.0106"
       style="fill:#ffffff;fill-opacity:1;fill-rule:nonzero;stroke:none;stroke-width:0.03527778"
       id="path1306" />
    <path
       d="m 121.32625,122.89245 0.005,-0.006 v -0.98637 c 0,-0.2159 -0.14958,-0.2473 -0.22895,-0.2473 h -0.0579 v -0.0794 c 0.12347,0 0.24483,0.0106 0.36865,0.0106 0.1076,0 0.2159,-0.0106 0.32315,-0.0106 v 0.0794 h -0.0392 c -0.11078,0 -0.23425,0.0208 -0.23425,0.33409 v 1.19732 c 0,0.0924 0.003,0.1838 0.0159,0.26564 h -0.0998 l -1.35537,-1.51024 v 1.08374 c 0,0.22965 0.0448,0.30832 0.2473,0.30832 h 0.0448 v 0.079 c -0.11289,0 -0.22613,-0.0106 -0.33973,-0.0106 -0.11783,0 -0.23918,0.0106 -0.35771,0.0106 v -0.079 h 0.0374 c 0.18132,0 0.23636,-0.12382 0.23636,-0.33408 v -1.10842 c 0,-0.14676 -0.12136,-0.23637 -0.23919,-0.23637 h -0.0346 v -0.0794 c 0.10019,0 0.20285,0.0106 0.30198,0.0106 0.0797,0 0.15558,-0.0106 0.23495,-0.0106 l 1.17122,1.31869"
       style="fill:#ffffff;fill-opacity:1;fill-rule:nonzero;stroke:none;stroke-width:0.03527778"
       id="path1308" />
    <path
       d="m 121.47865,123.46148 -0.1083,-0.004 -1.33597,-1.48837 v 1.05445 c 0.004,0.22966 0.0381,0.29387 0.23636,0.29634 h 0.0564 v 0.012 0.0896 h -0.0116 c -0.11359,0 -0.22684,-0.0102 -0.33972,-0.0102 -0.11713,0 -0.23848,0.0102 -0.35772,0.0102 h -0.0116 v -0.0106 -0.091 h 0.0116 0.0374 c 0.17357,-0.001 0.22331,-0.11254 0.22613,-0.32209 v -1.10843 c -7.1e-4,-0.13935 -0.11677,-0.22507 -0.22895,-0.22507 h -0.0462 v -0.0116 -0.0896 h 0.0116 c 0.10089,0 0.20355,0.01 0.30197,0.01 0.0787,0 0.15487,-0.01 0.24377,-0.006 l 1.15711,1.30175 v -0.96767 c -0.002,-0.20955 -0.14216,-0.2346 -0.21872,-0.23636 h -0.0695 v -0.0116 -0.0896 h 0.0116 c 0.12418,0 0.24554,0.01 0.36866,0.01 0.10759,0 0.21519,-0.01 0.32314,-0.01 h 0.012 v 0.0106 0.0907 h -0.012 -0.0392 c -0.10901,0.003 -0.21978,0.0123 -0.2226,0.32244 v 1.19768 c 0,0.0921 0.002,0.18344 0.0145,0.26317 l 0.003,0.0138 z m -0.0998,-0.0229 h 0.0875 c -0.0123,-0.079 -0.0145,-0.16651 -0.0145,-0.254 v -1.19768 c 0,-0.31503 0.13229,-0.34537 0.24518,-0.34537 h 0.0282 v -0.0561 c -0.10336,7.1e-4 -0.20743,0.0106 -0.31221,0.0106 -0.12029,0 -0.23812,-0.01 -0.35666,-0.0106 v 0.0561 h 0.0459 c 0.0808,0 0.2406,0.036 0.2406,0.25929 l -0.004,0.99448 -0.005,0.005 -0.009,0.008 -1.16981,-1.32327 c -0.078,0 -0.15452,0.0106 -0.23495,0.0106 -0.096,0 -0.19509,-0.01 -0.28998,-0.0106 l -7.2e-4,0.0561 h 0.0233 c 0.12347,0 0.25083,0.0942 0.25083,0.248 v 1.10843 c 0,0.21026 -0.0586,0.34502 -0.24801,0.34572 l -0.0254,-7.1e-4 v 0.0564 c 0.1136,-0.001 0.23142,-0.0106 0.34572,-0.0106 0.11042,0 0.21979,0.01 0.32809,0.0106 v -0.0557 h -0.0332 c -0.20673,-7.1e-4 -0.25824,-0.0903 -0.25824,-0.31997 v -1.11371 z m -0.0526,-0.5461 0.008,-0.008 z m -0.005,-0.006 v -7.1e-4 l -0.003,-0.002 z"
       style="fill:#ffffff;fill-opacity:1;fill-rule:nonzero;stroke:none;stroke-width:0.03527778"
       id="path1310" />
    <path
       d="m 122.13094,121.7057 c -0.19756,0 -0.20567,0.0469 -0.24448,0.23919 h -0.079 c 0.0102,-0.0737 0.0233,-0.14711 0.0321,-0.22366 0.01,-0.0741 0.0152,-0.14746 0.0152,-0.22331 h 0.0628 c 0.0215,0.079 0.0868,0.0759 0.1584,0.0759 h 1.35749 c 0.0716,0 0.13723,-0.002 0.14181,-0.0811 l 0.0635,0.0106 c -0.0102,0.0706 -0.0215,0.14217 -0.0289,0.21272 -0.005,0.0713 -0.005,0.14253 -0.005,0.21308 l -0.079,0.0296 c -0.006,-0.0974 -0.0187,-0.25294 -0.19508,-0.25294 h -0.43145 v 1.40017 c 0,0.2025 0.0924,0.22613 0.21837,0.22613 h 0.0497 v 0.079 c -0.10195,0 -0.28681,-0.0106 -0.42862,-0.0106 -0.1577,0 -0.34185,0.0106 -0.4445,0.0106 v -0.079 h 0.0497 c 0.14534,0 0.21836,-0.0134 0.21836,-0.22119 v -1.40511 h -0.43144"
       style="fill:#ffffff;fill-opacity:1;fill-rule:nonzero;stroke:none;stroke-width:0.03527778"
       id="path1312" />
    <path
       d="m 123.1681,123.42162 c -0.10336,0 -0.28751,-0.0102 -0.42933,-0.0102 -0.15769,0 -0.34113,0.0102 -0.4445,0.0102 h -0.0116 v -0.0106 -0.091 h 0.0116 0.0497 c 0.14535,-0.003 0.2032,-0.005 0.20673,-0.2092 v -1.39383 h -0.41981 v -0.0113 -0.012 h 0.44239 v 1.41711 c 0,0.21132 -0.0847,0.23248 -0.22931,0.23284 h -0.0384 v 0.0554 c 0.10407,-7.2e-4 0.28046,-0.0102 0.43321,-0.0102 0.13794,0 0.31362,0.01 0.41769,0.0102 v -0.0554 h -0.0388 c -0.12735,-3.5e-4 -0.2293,-0.0314 -0.2293,-0.23778 v -1.41217 h 0.44309 c 0.17568,7.2e-4 0.19896,0.15099 0.20461,0.24836 l 0.0571,-0.0208 c 0,-0.0684 7.1e-4,-0.13723 0.006,-0.20673 0.007,-0.0674 0.0166,-0.13441 0.0268,-0.20143 l -0.0399,-0.007 c -0.0127,0.0762 -0.0864,0.0801 -0.15311,0.079 h -1.35678 -0.0138 c -0.0621,0 -0.12947,-0.002 -0.15275,-0.0762 h -0.0434 c -7.2e-4,0.0727 -0.006,0.14358 -0.0159,0.21343 -0.008,0.0723 -0.0194,0.14146 -0.0289,0.21131 h 0.0557 c 0.0349,-0.18344 0.0571,-0.24271 0.254,-0.24024 v 0.012 0.0113 c -0.19474,0.004 -0.19086,0.036 -0.23425,0.23072 l -10e-4,0.009 h -0.009 -0.0931 l 0.002,-0.0138 c 0.0106,-0.0737 0.0243,-0.14711 0.0318,-0.22366 0.0109,-0.073 0.0159,-0.14605 0.0159,-0.22155 v -0.0113 h 0.0116 0.0723 l 0.001,0.008 c 0.018,0.0667 0.067,0.067 0.1337,0.0681 h 0.0138 1.35679 c 0.0737,-0.001 0.12664,-0.002 0.13158,-0.0709 l 7.2e-4,-0.0123 0.0123,0.002 0.0744,0.0116 -0.002,0.0116 c -0.0102,0.0706 -0.0205,0.14146 -0.0289,0.21202 -0.005,0.0702 -0.005,0.14111 -0.005,0.21202 v 0.008 l -0.007,0.003 -0.0931,0.0335 -7.2e-4,-0.0152 c -0.007,-0.0984 -0.0169,-0.24165 -0.18309,-0.24165 h -0.42051 v 1.38888 c 0.002,0.19826 0.0808,0.21167 0.20673,0.21414 h 0.0614 v 0.012 0.0896 h -0.0109"
       style="fill:#ffffff;fill-opacity:1;fill-rule:nonzero;stroke:none;stroke-width:0.03527778"
       id="path1314" />
    <path
       d="m 123.72196,123.33201 h 0.0381 c 0.0942,0 0.19403,-0.0134 0.19403,-0.15064 v -1.37795 c 0,-0.13723 -0.0998,-0.15028 -0.19403,-0.15028 h -0.0381 v -0.0794 c 0.16052,0 0.43498,0.0106 0.65547,0.0106 0.22119,0 0.49459,-0.0106 0.6738,-0.0106 -0.005,0.11289 -0.002,0.28751 0.005,0.40287 l -0.079,0.0212 c -0.013,-0.17109 -0.0441,-0.30727 -0.32103,-0.30727 h -0.36512 v 0.68898 h 0.31256 c 0.15804,0 0.19226,-0.0892 0.20814,-0.23213 h 0.0787 c -0.005,0.10301 -0.008,0.20567 -0.008,0.30833 0,0.10019 0.003,0.20002 0.008,0.30021 l -0.0787,0.0152 c -0.0159,-0.15734 -0.0233,-0.26 -0.20602,-0.26 h -0.31468 v 0.61243 c 0,0.17109 0.15204,0.17109 0.32032,0.17109 0.31609,0 0.45544,-0.0208 0.53375,-0.32032 l 0.0744,0.0176 c -0.0349,0.14005 -0.066,0.2794 -0.0896,0.4191 -0.16862,0 -0.47096,-0.0106 -0.70732,-0.0106 -0.23777,0 -0.54998,0.0106 -0.70097,0.0106 v -0.079"
       style="fill:#ffffff;fill-opacity:1;fill-rule:nonzero;stroke:none;stroke-width:0.03527778"
       id="path1316" />
    <path
       d="m 125.13025,123.42162 c -0.16862,0 -0.47166,-0.0102 -0.70732,-0.0102 -0.23777,0 -0.54998,0.0102 -0.70097,0.0102 h -0.0102 v -0.0106 -0.079 -0.012 h 0.0102 0.0381 c 0.0949,-0.001 0.18168,-0.01 0.18239,-0.13865 v -1.37795 c -7.1e-4,-0.12841 -0.0875,-0.13687 -0.18239,-0.13899 h -0.0483 v -0.0113 -0.09 h 0.0102 c 0.16122,0 0.43498,0.009 0.65547,0.009 0.22119,0 0.49459,-0.009 0.6738,-0.009 h 0.0116 v 0.0113 c -0.003,0.0399 -0.004,0.0868 -0.004,0.13582 0,0.0914 0.004,0.1905 0.008,0.26529 v 0.01 l -0.008,0.002 -0.0921,0.024 -0.001,-0.0134 c -0.0152,-0.17039 -0.0381,-0.29457 -0.30939,-0.29704 h -0.35491 v 0.66604 h 0.30233 c 0.15169,-0.001 0.1785,-0.079 0.1965,-0.22084 l 0.001,-0.0106 h 0.0102 0.0903 l -7.2e-4,0.012 c -0.004,0.10231 -0.007,0.20497 -0.007,0.30763 0,0.0995 0.003,0.19931 0.007,0.29915 l 7.2e-4,0.01 -0.01,0.002 -0.091,0.0187 -10e-4,-0.0127 c -0.018,-0.16122 -0.0194,-0.24836 -0.19438,-0.25047 h -0.30445 v 0.60148 c 7.1e-4,0.16017 0.13899,0.15911 0.3108,0.16017 0.31608,-0.002 0.44379,-0.0173 0.52281,-0.31327 l 0.003,-0.0102 0.0102,0.002 0.0847,0.0215 -0.002,0.0113 c -0.0339,0.13864 -0.0656,0.27834 -0.0889,0.41804 l -0.002,0.008 z m -0.0102,-0.0226 c 0.0236,-0.13265 0.0536,-0.266 0.0854,-0.39829 l -0.0515,-0.013 c -0.0794,0.29457 -0.23142,0.32067 -0.54151,0.31856 -0.16616,0 -0.33232,0 -0.33302,-0.18274 v -0.62371 h 0.32667 c 0.18415,-0.002 0.20249,0.10865 0.21555,0.25823 l 0.0575,-0.012 c -0.006,-0.0967 -0.008,-0.19367 -0.008,-0.29033 0,-0.0991 0.002,-0.19756 0.008,-0.29669 h -0.0575 c -0.0145,0.13723 -0.0571,0.23319 -0.21767,0.23142 h -0.32455 v -0.71226 h 0.37712 c 0.2741,-0.002 0.31891,0.13935 0.33125,0.3048 l 0.0564,-0.0152 c -0.004,-0.0741 -0.007,-0.16933 -0.007,-0.25752 0,-0.0448 7.2e-4,-0.0875 0.002,-0.12489 -0.1785,7.2e-4 -0.4445,0.0106 -0.66145,0.0106 -0.21661,0 -0.4826,-0.01 -0.64382,-0.0106 v 0.0561 h 0.0265 c 0.0928,0 0.20531,0.0162 0.20602,0.16193 v 1.37795 c -7.2e-4,0.14605 -0.11324,0.16157 -0.20602,0.16228 h -0.0265 v 0.0554 c 0.15381,0 0.45684,-0.0102 0.68932,-0.0102 0.23213,0 0.52776,0.0102 0.69709,0.0102"
       style="fill:#ffffff;fill-opacity:1;fill-rule:nonzero;stroke:none;stroke-width:0.03527778"
       id="path1318" />
    <path
       d="m 125.57475,121.85281 c 0,-0.19156 -0.10548,-0.19967 -0.18732,-0.19967 h -0.0469 v -0.0794 c 0.084,0 0.24659,0.0106 0.40781,0.0106 0.15804,0 0.28398,-0.0106 0.42333,-0.0106 0.33126,0 0.62689,0.0893 0.62689,0.46355 0,0.23636 -0.1584,0.38135 -0.36583,0.4632 l 0.44979,0.67345 c 0.0737,0.11113 0.12629,0.14217 0.25576,0.15804 v 0.079 c -0.0875,0 -0.17145,-0.0106 -0.25858,-0.0106 -0.0811,0 -0.16581,0.0106 -0.2473,0.0106 -0.20249,-0.26564 -0.37677,-0.54998 -0.54716,-0.85301 h -0.17427 v 0.56338 c 0,0.20285 0.0953,0.21061 0.2159,0.21061 h 0.0473 v 0.079 c -0.14923,0 -0.30163,-0.0106 -0.45191,-0.0106 -0.12665,0 -0.25012,0.0106 -0.3817,0.0106 v -0.079 h 0.0469 c 0.0984,0 0.18732,-0.0452 0.18732,-0.14217 z m 0.3362,0.60996 h 0.12982 c 0.26317,0 0.40429,-0.0991 0.40429,-0.40993 0,-0.23389 -0.14888,-0.38382 -0.38383,-0.38382 -0.079,0 -0.11289,0.008 -0.15028,0.0102 v 0.78351"
       style="fill:#ffffff;fill-opacity:1;fill-rule:nonzero;stroke:none;stroke-width:0.03527778"
       id="path1320" />
    <path
       d="m 127.13826,123.42162 c -0.0889,0 -0.17286,-0.0102 -0.25929,-0.0102 -0.0797,0 -0.16369,0.0102 -0.25541,0.006 -0.20179,-0.26459 -0.375,-0.54752 -0.54504,-0.84808 h -0.15558 v 0.55139 c 0.002,0.19791 0.0818,0.1965 0.20391,0.19897 h 0.0593 v 0.012 0.0896 h -0.012 c -0.14993,0 -0.30304,-0.0102 -0.45261,-0.0102 -0.12524,0 -0.24942,0.0102 -0.381,0.0102 h -0.0116 v -0.0106 -0.091 h 0.0116 0.0469 c 0.0949,-7.2e-4 0.17497,-0.0413 0.17568,-0.13018 v -1.33708 c -0.002,-0.18627 -0.0931,-0.18556 -0.17569,-0.18838 h -0.0586 v -0.0113 -0.0907 h 0.0116 c 0.0854,0 0.2473,0.0102 0.40781,0.0102 0.15734,0 0.28328,-0.0102 0.42333,-0.0102 0.33197,10e-4 0.63712,0.0924 0.63783,0.47484 0,0.23706 -0.15699,0.38558 -0.35949,0.46849 l 0.44168,0.66181 c 0.0737,0.10936 0.11959,0.13652 0.24801,0.1524 l 0.01,0.002 v 0.0102 0.0896 z m -1.22731,-0.87525 h 0.18062 l 0.003,0.006 c 0.17145,0.30233 0.34431,0.58667 0.53799,0.84702 0.0801,0 0.16545,-0.0106 0.24659,-0.0106 0.0843,0 0.16545,0.009 0.24765,0.0102 v -0.0575 c -0.12418,-0.0152 -0.18203,-0.0522 -0.25365,-0.16157 l -0.45755,-0.68474 0.0123,-0.006 c 0.20602,-0.0811 0.35913,-0.22155 0.35913,-0.45226 0,-0.36513 -0.28469,-0.45015 -0.61525,-0.45191 -0.13864,0 -0.26528,0.0106 -0.42333,0.0106 -0.15487,0 -0.31044,-0.01 -0.39687,-0.0106 v 0.0561 h 0.036 c 0.0825,0 0.19826,0.0134 0.19826,0.21131 v 1.33703 c 0,0.10548 -0.0984,0.15346 -0.19826,0.15381 h -0.036 v 0.0554 c 0.127,0 0.24694,-0.0102 0.37006,-0.0102 0.14676,0 0.29563,0.0102 0.44097,0.0102 v -0.0554 h -0.0356 c -0.11994,-3.4e-4 -0.22683,-0.0148 -0.22683,-0.2226 v -0.57468 z m 0,-0.072 h -0.0109 v -0.80539 l 0.0102,-0.001 c 0.036,-0.003 0.0713,-0.0102 0.15099,-0.0102 0.23989,0 0.39546,0.15593 0.39617,0.39547 -7.2e-4,0.31432 -0.15205,0.42121 -0.41663,0.42121 z m 0.12982,-0.0226 c 0.26035,-0.002 0.39123,-0.0928 0.39406,-0.39864 -0.002,-0.22965 -0.14464,-0.37218 -0.3736,-0.37323 -0.0709,0 -0.10477,0.006 -0.13829,0.009 v 0.76235 h 0.11783"
       style="fill:#ffffff;fill-opacity:1;fill-rule:nonzero;stroke:none;stroke-width:0.03527778"
       id="path1322" />
    <path
       d="m 128.92403,122.89245 0.005,-0.006 v -0.98637 c 0,-0.2159 -0.15029,-0.2473 -0.2286,-0.2473 h -0.0579 v -0.0794 c 0.12312,0 0.24447,0.0106 0.3683,0.0106 0.1083,0 0.21519,-0.0106 0.32385,-0.0106 v 0.0794 h -0.0392 c -0.11078,0 -0.23425,0.0208 -0.23425,0.33409 v 1.19732 c 0,0.0924 0.003,0.1838 0.0152,0.26564 h -0.0998 l -1.35467,-1.51024 v 1.08374 c 0,0.22965 0.0441,0.30832 0.2473,0.30832 h 0.0448 v 0.079 c -0.11289,0 -0.22683,-0.0106 -0.33972,-0.0106 -0.11854,0 -0.23989,0.0106 -0.35737,0.0106 v -0.079 h 0.0356 c 0.18274,0 0.23777,-0.12382 0.23777,-0.33408 v -1.10842 c 0,-0.14676 -0.12135,-0.23637 -0.23988,-0.23637 h -0.0335 v -0.0794 c 0.0991,0 0.20178,0.0106 0.30162,0.0106 0.0787,0 0.15487,-0.0106 0.23424,-0.0106 l 1.17123,1.31869"
       style="fill:#ffffff;fill-opacity:1;fill-rule:nonzero;stroke:none;stroke-width:0.03527778"
       id="path1324" />
    <path
       d="m 129.07643,123.46148 -0.10831,-0.004 -1.33526,-1.48837 v 1.05445 c 0.004,0.22966 0.0374,0.29387 0.23636,0.29634 h 0.0557 v 0.012 0.0896 h -0.0116 c -0.11359,0 -0.22648,-0.0102 -0.33973,-0.0102 -0.11712,0 -0.23918,0.0102 -0.35665,0.0102 h -0.0127 v -0.0106 -0.091 h 0.0127 0.0356 c 0.17356,-7.2e-4 0.22401,-0.11254 0.22613,-0.3228 v -1.10772 c -7.2e-4,-0.1397 -0.11571,-0.22507 -0.22825,-0.22507 h -0.0462 v -0.0113 -0.0907 h 0.0127 c 0.0998,0 0.20249,0.0102 0.30162,0.0102 0.078,0 0.15382,-0.0102 0.24236,-0.007 l 1.15641,1.30246 v -0.96803 c 0,-0.20919 -0.14076,-0.23495 -0.21696,-0.23601 h -0.0699 v -0.0113 -0.0907 h 0.012 c 0.12382,0 0.24518,0.0102 0.3683,0.0102 0.1076,0 0.21519,-0.0102 0.32314,-0.0102 h 0.0127 v 0.0116 0.0903 h -0.0127 -0.0384 c -0.10901,0.003 -0.22048,0.0123 -0.22331,0.32244 v 1.19768 c 0,0.0921 0.002,0.1831 0.0152,0.26388 l 0.001,0.0131 z m -0.0998,-0.0229 h 0.0868 c -0.0116,-0.0787 -0.0145,-0.16651 -0.0145,-0.254 v -1.19768 c 7.1e-4,-0.31503 0.1337,-0.34467 0.24659,-0.34537 h 0.0275 v -0.0561 c -0.10337,7.1e-4 -0.20744,0.0106 -0.31221,0.0106 -0.121,0 -0.23813,-0.01 -0.35666,-0.0106 v 0.0561 h 0.0462 c 0.0811,7.1e-4 0.24024,0.036 0.24024,0.25894 l -0.004,0.99483 -0.004,0.005 -0.008,0.008 -1.17122,-1.32327 c -0.078,0 -0.15416,0.0106 -0.23424,0.0106 -0.097,0 -0.1958,-0.01 -0.2914,-0.0106 v 0.0561 h 0.0233 c 0.12418,7.2e-4 0.25083,0.0942 0.25083,0.248 v 1.10773 c 0,0.21131 -0.0593,0.34572 -0.24871,0.34642 l -0.0254,-3.4e-4 v 0.0557 c 0.1143,-7.1e-4 0.23072,-0.0102 0.34643,-0.0102 0.11042,0 0.21978,0.009 0.32949,0.0102 v -0.0554 h -0.0339 c -0.20743,-3.4e-4 -0.25894,-0.0903 -0.25964,-0.31997 v -1.11336 z m -0.0526,-0.5461 0.009,-0.008 z m -0.007,-0.006 v -3.4e-4 l -0.002,-0.002 z"
       style="fill:#ffffff;fill-opacity:1;fill-rule:nonzero;stroke:none;stroke-width:0.03527778"
       id="path1326" />
    <path
       d="m 129.75799,123.03427 c -0.0265,0.0892 -0.0586,0.15804 -0.0586,0.20531 0,0.079 0.11077,0.0924 0.19756,0.0924 h 0.0296 v 0.079 c -0.10619,-0.006 -0.21343,-0.0106 -0.31962,-0.0106 -0.0945,0 -0.18803,0.005 -0.28328,0.0106 v -0.079 h 0.0159 c 0.10195,0 0.18944,-0.0607 0.22825,-0.17145 l 0.42157,-1.20756 c 0.0346,-0.0974 0.0819,-0.22895 0.0977,-0.32667 0.0843,-0.0289 0.18873,-0.0811 0.23918,-0.11253 0.008,-0.002 0.013,-0.006 0.0208,-0.006 0.007,0 0.013,0 0.0183,0.008 0.008,0.0205 0.0152,0.0444 0.0243,0.0653 l 0.48366,1.37618 c 0.0317,0.0924 0.0632,0.18909 0.097,0.26882 0.0317,0.0737 0.0868,0.10513 0.17427,0.10513 h 0.0152 v 0.079 c -0.11783,-0.006 -0.23636,-0.0106 -0.36301,-0.0106 -0.12805,0 -0.26035,0.005 -0.39475,0.0106 v -0.079 h 0.0296 c 0.06,0 0.16333,-0.0106 0.16333,-0.0762 0,-0.0346 -0.0236,-0.10548 -0.054,-0.19015 l -0.10266,-0.30515 h -0.59654 z m 0.38418,-1.16558 h -0.005 l -0.24483,0.74506 h 0.49142 l -0.2413,-0.74506"
       style="fill:#ffffff;fill-opacity:1;fill-rule:nonzero;stroke:none;stroke-width:0.03527778"
       id="path1328" />
    <path
       d="m 131.15923,123.42162 c -0.11783,-0.004 -0.23637,-0.0102 -0.36231,-0.0102 -0.12806,0 -0.25964,0.006 -0.39405,0.0102 l -0.0116,10e-4 v -0.0116 -0.0917 h 0.0109 0.0289 c 0.0614,0 0.15099,-0.0134 0.15169,-0.0635 3.5e-4,-0.03 -0.0229,-0.10231 -0.0526,-0.18592 l -0.0998,-0.2981 h -0.58032 l -0.0811,0.266 c -0.0268,0.09 -0.0586,0.15945 -0.0586,0.20214 7.2e-4,0.0646 0.0991,0.0794 0.18662,0.0794 h 0.0406 v 0.0127 0.0907 l -0.0123,-0.001 c -0.10477,-0.004 -0.21272,-0.0102 -0.3175,-0.0102 -0.0945,0 -0.18873,0.006 -0.28328,0.0102 l -0.0123,0.001 v -0.0116 -0.0917 h 0.0116 0.0159 c 0.0977,0 0.17921,-0.0554 0.21696,-0.16228 l 0.42192,-1.20791 c 0.0342,-0.0974 0.0811,-0.2286 0.10478,-0.33337 0.0818,-0.0282 0.18732,-0.0811 0.23812,-0.11289 0.008,-0.003 0.0152,-0.006 0.0257,-0.006 0.006,-3.5e-4 0.0205,0.001 0.0289,0.0155 0.007,0.0215 0.0159,0.0451 0.024,0.0663 l 0.48437,1.37654 c 0.031,0.0917 0.0621,0.18944 0.097,0.2667 0.0296,0.0702 0.0787,0.0977 0.16333,0.0977 h 0.0268 v 0.0127 0.0907 z m -0.74542,-0.0233 c 0.12947,-0.004 0.25823,-0.01 0.38311,-0.01 0.12277,0 0.23707,0.005 0.35207,0.01 v -0.055 h -0.004 c -0.0903,7.1e-4 -0.15204,-0.0346 -0.1845,-0.11219 -0.0346,-0.0797 -0.067,-0.17709 -0.0981,-0.26952 l -0.48436,-1.37619 c -0.007,-0.0205 -0.0152,-0.0444 -0.0219,-0.0631 -0.003,-0.002 -0.001,-0.002 -0.004,-0.002 h -0.005 c -0.006,0 -0.008,0.001 -0.0152,0.003 -0.0512,0.0332 -0.15664,0.085 -0.23425,0.10549 -0.0159,0.0995 -0.0642,0.23071 -0.0981,0.32843 l -0.42086,1.20791 c -0.0406,0.1143 -0.13229,0.17886 -0.23918,0.17851 h -0.005 v 0.055 c 0.091,-0.004 0.18203,-0.01 0.27305,-0.01 0.10195,0 0.20602,0.005 0.30585,0.01 v -0.055 h -0.0166 c -0.0861,-0.001 -0.20531,-0.0106 -0.20884,-0.10337 7.1e-4,-0.0526 0.0325,-0.11959 0.0579,-0.20884 l 0.012,0.003 -0.012,-0.004 0.0871,-0.28116 h 0.61383 l 0.10548,0.31256 c 0.0289,0.0847 0.0536,0.15451 0.0536,0.19367 -0.004,0.0808 -0.115,0.0861 -0.17498,0.0875 h -0.0173 z m -0.53799,-0.77365 0.25188,-0.76729 h 0.0145 v 0.0113 l -0.002,7.2e-4 0.002,-7.2e-4 v -0.0113 h 0.008 l 0.25012,0.76729 z m 0.0314,-0.0229 h 0.46108 l -0.2286,-0.70485 z m 0.22331,-0.72954 0.006,-0.002 -0.006,0.002"
       style="fill:#ffffff;fill-opacity:1;fill-rule:nonzero;stroke:none;stroke-width:0.03527778"
       id="path1330" />
    <path
       d="m 131.27564,121.7057 c -0.19685,0 -0.20531,0.0469 -0.24447,0.23919 h -0.0794 c 0.0106,-0.0737 0.0243,-0.14711 0.0325,-0.22366 0.0102,-0.0741 0.0145,-0.14746 0.0145,-0.22331 h 0.0642 c 0.0212,0.079 0.0875,0.0759 0.15769,0.0759 h 1.35819 c 0.0709,0 0.13617,-0.002 0.14111,-0.0811 l 0.0635,0.0106 c -0.0102,0.0706 -0.0208,0.14217 -0.0282,0.21272 -0.006,0.0713 -0.006,0.14253 -0.006,0.21308 l -0.0794,0.0296 c -0.005,-0.0974 -0.0176,-0.25294 -0.19402,-0.25294 h -0.43216 v 1.40017 c 0,0.2025 0.0924,0.22613 0.21837,0.22613 h 0.0505 v 0.079 c -0.10266,0 -0.28681,-0.0106 -0.42933,-0.0106 -0.15769,0 -0.34184,0.0106 -0.4445,0.0106 v -0.079 h 0.0497 c 0.14535,0 0.21837,-0.0134 0.21837,-0.22119 v -1.40511 h -0.43145"
       style="fill:#ffffff;fill-opacity:1;fill-rule:nonzero;stroke:none;stroke-width:0.03527778"
       id="path1332" />
    <path
       d="m 132.31281,123.42162 c -0.10337,0 -0.28822,-0.0102 -0.42933,-0.0102 -0.15699,0 -0.34114,0.0102 -0.4445,0.0102 h -0.0116 v -0.0106 -0.091 h 0.0116 0.0497 c 0.14534,-0.003 0.2032,-0.005 0.20743,-0.2092 l -7.1e-4,-1.39383 h -0.41981 v -0.0113 -0.012 h 0.44309 v 1.41711 c 0,0.21132 -0.0854,0.23213 -0.23001,0.23248 h -0.0385 v 0.0561 c 0.10372,-10e-4 0.28081,-0.0106 0.43321,-0.0106 0.13794,0 0.31362,0.009 0.41769,0.0106 v -0.0561 h -0.0388 c -0.12665,-3.4e-4 -0.2286,-0.0307 -0.22931,-0.23742 v -1.41217 h 0.44309 c 0.17639,7.2e-4 0.19897,0.15099 0.20461,0.24836 l 0.0572,-0.0208 c 0,-0.0684 7.2e-4,-0.13723 0.006,-0.20638 0.007,-0.0677 0.0169,-0.13476 0.0261,-0.20178 l -0.0395,-0.007 c -0.0123,0.0762 -0.0861,0.0801 -0.15134,0.079 h -1.35819 -0.0138 c -0.0614,7.1e-4 -0.12877,-0.002 -0.15311,-0.0765 h -0.0434 c 0,0.073 -0.005,0.14393 -0.0152,0.21378 -0.007,0.0727 -0.0198,0.14217 -0.03,0.21131 h 0.0565 c 0.0342,-0.18344 0.0579,-0.24271 0.254,-0.24024 v 0.012 0.0113 c -0.19473,0.004 -0.19015,0.036 -0.23354,0.23072 l -0.001,0.009 h -0.01 -0.0924 l 0.002,-0.013 c 0.0102,-0.0744 0.0236,-0.14781 0.031,-0.22401 0.0109,-0.0734 0.0159,-0.14641 0.0159,-0.2219 v -0.0113 h 0.0109 0.0723 l 0.002,0.008 c 0.0194,0.0667 0.067,0.067 0.1337,0.0681 0.005,0 0.009,7.1e-4 0.0138,7.1e-4 h 1.3582 c 0.0723,-0.002 0.12594,-0.003 0.13017,-0.0713 l 7.2e-4,-0.0127 0.0116,0.003 0.0759,0.0116 -0.003,0.0116 c -0.0109,0.0706 -0.0208,0.14147 -0.0289,0.21202 -0.005,0.0702 -0.005,0.14147 -0.005,0.21202 v 0.008 l -0.007,0.003 -0.0938,0.0335 v -0.0152 c -0.007,-0.0984 -0.0166,-0.24165 -0.18309,-0.24165 h -0.42051 v 1.38889 c 0.003,0.19826 0.0815,0.21166 0.20672,0.21413 h 0.0614 v 0.012 0.0896 h -0.0109"
       style="fill:#ffffff;fill-opacity:1;fill-rule:nonzero;stroke:none;stroke-width:0.03527778"
       id="path1334" />
    <path
       d="m 132.88043,123.33201 h 0.0374 c 0.0942,0 0.19403,-0.0134 0.19403,-0.15064 v -1.37795 c 0,-0.13723 -0.0998,-0.15028 -0.19403,-0.15028 h -0.0374 v -0.0794 c 0.10266,0 0.26035,0.0106 0.38946,0.0106 0.13159,0 0.28928,-0.0106 0.41346,-0.0106 v 0.0794 h -0.0367 c -0.0956,0 -0.19579,0.0131 -0.19579,0.15028 v 1.37795 c 0,0.13723 0.10019,0.15064 0.19579,0.15064 h 0.0367 v 0.079 c -0.127,0 -0.28399,-0.0106 -0.41557,-0.0106 -0.12947,0 -0.28469,0.0106 -0.38735,0.0106 v -0.079"
       style="fill:#ffffff;fill-opacity:1;fill-rule:nonzero;stroke:none;stroke-width:0.03527778"
       id="path1336" />
    <path
       d="m 133.68335,123.42162 c -0.12771,0 -0.2854,-0.0102 -0.41557,-0.0102 -0.12877,0 -0.28399,0.0102 -0.38735,0.0102 h -0.0116 v -0.0106 -0.079 -0.012 h 0.0116 0.0374 c 0.0942,-0.001 0.18168,-0.01 0.18238,-0.13865 v -1.37795 c -7.1e-4,-0.12841 -0.0882,-0.13723 -0.18238,-0.13899 h -0.049 v -0.0113 -0.09 h 0.0116 c 0.10336,0 0.26105,0.009 0.38946,0.009 0.13089,0 0.28858,-0.009 0.41346,-0.009 h 0.0109 v 0.0106 0.0907 h -0.0109 -0.0367 c -0.097,0.002 -0.18309,0.0106 -0.1838,0.13899 v 1.37795 c 7.2e-4,0.12912 0.0868,0.13723 0.1838,0.13865 h 0.0476 v 0.012 0.0896 z m -0.012,-0.0226 v -0.0557 h -0.0247 c -0.0949,0 -0.20673,-0.0159 -0.20673,-0.16193 v -1.37795 c 0,-0.1457 0.11183,-0.16192 0.20673,-0.16192 h 0.0247 v -0.0561 c -0.12171,7.1e-4 -0.27411,0.0106 -0.40146,0.0106 -0.12488,0 -0.27587,-0.01 -0.37853,-0.0106 v 0.0561 h 0.0265 c 0.0928,0 0.20602,0.0162 0.20602,0.16192 v 1.37795 c 0,0.14605 -0.11324,0.16193 -0.20602,0.16193 h -0.0265 v 0.0557 c 0.1023,-10e-4 0.25012,-0.0102 0.37641,-0.0102 0.12665,0 0.27905,0.009 0.40358,0.0102"
       style="fill:#ffffff;fill-opacity:1;fill-rule:nonzero;stroke:none;stroke-width:0.03527778"
       id="path1338" />
    <path
       d="m 134.73251,121.53461 c 0.56092,0 1.00754,0.34784 1.00754,0.90805 0,0.60572 -0.43357,1.00753 -0.99378,1.00753 -0.55809,0 -0.9846,-0.37853 -0.9846,-0.94439 0,-0.54715 0.42368,-0.97119 0.97084,-0.97119 m 0.0399,1.79987 c 0.51083,0 0.59973,-0.45015 0.59973,-0.83397 0,-0.38453 -0.20744,-0.84984 -0.64418,-0.84984 -0.46037,0 -0.5976,0.41028 -0.5976,0.76235 0,0.47131 0.21554,0.92146 0.64205,0.92146"
       style="fill:#ffffff;fill-opacity:1;fill-rule:nonzero;stroke:none;stroke-width:0.03527778"
       id="path1340" />
    <path
       d="m 133.75003,122.5058 c 7.1e-4,-0.55386 0.42933,-0.98142 0.98248,-0.98283 v 0.0116 0.0116 c -0.54081,0 -0.95991,0.41768 -0.95991,0.95955 7.2e-4,0.55951 0.42051,0.93239 0.97296,0.93275 0.55563,-3.5e-4 0.9832,-0.39723 0.9839,-0.9966 0,-0.55316 -0.44026,-0.89535 -0.99695,-0.8957 v -0.0116 -0.0116 c 0.56515,0.001 1.01776,0.35207 1.01918,0.91898 -8e-4,0.61207 -0.44027,1.01847 -1.00613,1.01953 -0.56268,-10e-4 -0.99483,-0.38382 -0.99553,-0.95568 m 0.36865,-0.0928 c 7.1e-4,-0.35418 0.13864,-0.77399 0.60924,-0.77399 0.44627,0.001 0.65441,0.47484 0.65582,0.86148 -10e-4,0.38383 -0.091,0.84455 -0.61137,0.84455 v -0.0106 -0.0113 c 0.50024,-7.1e-4 0.58738,-0.43885 0.58844,-0.82267 0,-0.38136 -0.20602,-0.8382 -0.63289,-0.83891 -0.45226,7.1e-4 -0.58525,0.40111 -0.58666,0.75142 7.1e-4,0.46884 0.21448,0.90911 0.63111,0.91016 v 0.0113 0.0106 c -0.43673,-3.4e-4 -0.65299,-0.45825 -0.65369,-0.93204"
       style="fill:#ffffff;fill-opacity:1;fill-rule:nonzero;stroke:none;stroke-width:0.03527778"
       id="path1342" />
    <path
       d="m 137.51416,122.89245 0.006,-0.006 v -0.98637 c 0,-0.2159 -0.15098,-0.2473 -0.23036,-0.2473 h -0.0565 v -0.0794 c 0.12277,0 0.24377,0.0106 0.36724,0.0106 0.10831,0 0.21626,-0.0106 0.32456,-0.0106 v 0.0794 h -0.0399 c -0.11113,0 -0.23424,0.0208 -0.23424,0.33409 v 1.19732 c 0,0.0924 0.002,0.1838 0.0159,0.26564 h -0.10019 l -1.35502,-1.51024 v 1.08374 c 0,0.22965 0.0441,0.30832 0.2473,0.30832 h 0.0448 v 0.079 c -0.11325,0 -0.22614,-0.0106 -0.33902,-0.0106 -0.11924,0 -0.23989,0.0106 -0.35913,0.0106 v -0.079 h 0.0381 c 0.18168,0 0.23636,-0.12382 0.23636,-0.33408 v -1.10842 c 0,-0.14676 -0.12065,-0.23637 -0.23989,-0.23637 h -0.0346 v -0.0794 c 0.10054,0 0.2025,0.0106 0.30339,0.0106 0.0783,0 0.15487,-0.0106 0.23424,-0.0106 l 1.17123,1.31869"
       style="fill:#ffffff;fill-opacity:1;fill-rule:nonzero;stroke:none;stroke-width:0.03527778"
       id="path1344" />
    <path
       d="m 137.66656,123.46148 -0.109,-0.004 -1.33527,-1.48837 v 1.05445 c 0.004,0.22966 0.0385,0.29387 0.23566,0.29563 h 0.0564 v 0.0127 0.0896 h -0.0109 c -0.11395,0 -0.22754,-0.0102 -0.33973,-0.0102 -0.11782,0 -0.23847,0.0102 -0.35842,0.0102 h -0.0109 v -0.0106 -0.0917 h 0.0109 0.0381 c 0.17286,-3.4e-4 0.22296,-0.11183 0.22437,-0.32138 v -1.10843 c 0,-0.1397 -0.11501,-0.22507 -0.2279,-0.22507 h -0.0455 v -0.0113 -0.09 h 0.0109 c 0.10125,0 0.2032,0.01 0.30339,0.01 0.0776,0 0.15346,-0.01 0.24236,-0.006 l 1.15605,1.30175 v -0.96767 c -7e-4,-0.20955 -0.1404,-0.23459 -0.21766,-0.23636 h -0.0688 v -0.0113 -0.09 h 0.0116 c 0.12418,0 0.24518,0.01 0.36724,0.01 0.1083,0 0.21555,-0.01 0.32526,-0.01 h 0.0109 v 0.0106 0.0907 h -0.0109 -0.0399 c -0.1083,0.003 -0.22048,0.0127 -0.22331,0.32244 v 1.19768 c 0,0.0921 0.003,0.18345 0.0159,0.26388 l 0.002,0.0131 z m -0.10019,-0.0229 h 0.0864 c -0.0113,-0.079 -0.0134,-0.16651 -0.0134,-0.254 v -1.19768 c 0,-0.31609 0.133,-0.34467 0.24554,-0.34537 h 0.0282 v -0.0561 c -0.10407,7.1e-4 -0.20744,0.0106 -0.31362,0.0106 -0.11924,0 -0.23707,-0.01 -0.3556,-0.0106 v 0.0561 h 0.0455 c 0.0815,7.1e-4 0.24059,0.0363 0.24059,0.25929 l -0.003,0.99448 -0.006,0.005 -0.007,0.008 -1.17122,-1.32327 c -0.078,0 -0.15452,0.0106 -0.23425,0.0106 -0.0974,0 -0.19579,-0.01 -0.29174,-0.0106 v 0.0561 h 0.0229 c 0.12382,7.2e-4 0.25082,0.0942 0.25082,0.248 v 1.10843 c 0,0.21026 -0.0586,0.34502 -0.2473,0.34572 l -0.0265,-3.4e-4 v 0.0557 c 0.11536,-7.1e-4 0.23178,-0.0102 0.34679,-0.0102 0.11006,0 0.21907,0.009 0.32843,0.0102 v -0.0554 h -0.0342 c -0.20673,-3.6e-4 -0.25859,-0.0903 -0.25859,-0.31998 v -1.11372 z m -0.0522,-0.5461 0.007,-0.008 z m -0.007,-0.006 v -3.4e-4 l -0.001,-0.002 z"
       style="fill:#ffffff;fill-opacity:1;fill-rule:nonzero;stroke:none;stroke-width:0.03527778"
       id="path1346" />
    <path
       d="m 138.34707,123.03427 c -0.0254,0.0892 -0.0579,0.15804 -0.0579,0.20531 0,0.079 0.11113,0.0924 0.19791,0.0924 h 0.0289 v 0.079 c -0.10548,-0.006 -0.21378,-0.0106 -0.31891,-0.0106 -0.0945,0 -0.18909,0.005 -0.28328,0.0106 v -0.079 h 0.0145 c 0.10336,0 0.19085,-0.0607 0.2293,-0.17145 l 0.42157,-1.20756 c 0.0339,-0.0974 0.0815,-0.22895 0.0967,-0.32667 0.0847,-0.0289 0.19015,-0.0811 0.2406,-0.11253 0.007,-0.002 0.0124,-0.006 0.0205,-0.006 0.008,0 0.013,0 0.018,0.008 0.008,0.0205 0.0166,0.0444 0.024,0.0653 l 0.48365,1.37618 c 0.0318,0.0924 0.0635,0.18909 0.0981,0.26882 0.0317,0.0737 0.0868,0.10513 0.17357,0.10513 h 0.0159 v 0.079 c -0.11853,-0.006 -0.23707,-0.0106 -0.36371,-0.0106 -0.12841,0 -0.26,0.005 -0.39441,0.0106 v -0.079 h 0.0289 c 0.0607,0 0.16333,-0.0106 0.16333,-0.0762 0,-0.0346 -0.0233,-0.10548 -0.0529,-0.19015 l -0.10265,-0.30515 h -0.59727 z m 0.38524,-1.16558 h -0.006 l -0.24483,0.74506 h 0.49283 l -0.24201,-0.74506"
       style="fill:#ffffff;fill-opacity:1;fill-rule:nonzero;stroke:none;stroke-width:0.03527778"
       id="path1348" />
    <path
       d="m 139.74936,123.42162 c -0.11924,-0.004 -0.23706,-0.0102 -0.363,-0.0102 -0.12771,0 -0.26,0.006 -0.3937,0.0102 l -0.0116,10e-4 v -0.0116 -0.091 h 0.0109 0.0289 c 0.0614,0 0.15169,-0.0141 0.15169,-0.0642 7.1e-4,-0.03 -0.0226,-0.10196 -0.0522,-0.18592 l -0.1002,-0.29813 h -0.58067 l -0.0808,0.26599 c -0.0275,0.09 -0.0586,0.15946 -0.0579,0.20179 0,0.0649 0.0988,0.0804 0.18556,0.0804 h 0.0406 v 0.012 0.0907 l -0.0116,-0.001 c -0.10548,-0.004 -0.21308,-0.0102 -0.31821,-0.0102 -0.0938,0 -0.18838,0.006 -0.28327,0.0102 l -0.0116,0.001 v -0.0116 -0.091 h 0.0116 0.0145 c 0.0984,-7.1e-4 0.18062,-0.0564 0.21907,-0.16298 l 0.42087,-1.20791 c 0.0339,-0.0974 0.0815,-0.2286 0.10406,-0.33338 0.0833,-0.0286 0.18874,-0.0811 0.23989,-0.11289 0.007,-0.003 0.0138,-0.006 0.0247,-0.006 0.007,-7.1e-4 0.0208,0.001 0.0289,0.0162 0.008,0.0198 0.0152,0.0441 0.0243,0.0653 l 0.48366,1.37654 c 0.0314,0.0917 0.0632,0.18944 0.097,0.26706 0.0317,0.0699 0.0787,0.0974 0.16263,0.0981 h 0.0282 v 0.012 0.0907 z m -0.74612,-0.0226 c 0.13088,-0.005 0.25823,-0.0102 0.38312,-0.0102 0.12311,0 0.23741,0.005 0.35207,0.009 l -8e-4,-0.055 h -0.004 c -0.0889,3.4e-4 -0.15099,-0.0346 -0.18344,-0.11219 -0.0349,-0.0797 -0.066,-0.17709 -0.0977,-0.26917 l -0.48427,-1.37654 c -0.007,-0.0205 -0.0159,-0.0444 -0.0212,-0.0628 -0.003,-0.003 -0.003,-0.003 -0.004,-0.003 h -0.006 c -0.005,0 -0.009,0.001 -0.0152,0.003 -0.0508,0.0328 -0.15629,0.0854 -0.23425,0.10549 -0.0159,0.0995 -0.0642,0.23071 -0.0977,0.32843 l -0.42194,1.20791 c -0.0399,0.1143 -0.13158,0.17886 -0.23953,0.17851 h -0.004 v 0.055 c 0.091,-0.004 0.18132,-0.009 0.27234,-0.009 0.10266,0 0.20637,0.005 0.30727,0.009 v -0.055 h -0.0181 c -0.0854,-0.001 -0.20532,-0.0102 -0.20885,-0.10372 8e-4,-0.0522 0.0332,-0.11888 0.0586,-0.20849 l 0.0109,0.003 -0.0109,-0.004 0.0875,-0.28116 h 0.61313 l 0.10478,0.31256 c 0.0296,0.0847 0.054,0.15451 0.054,0.19367 -0.004,0.0808 -0.11466,0.0861 -0.17463,0.0875 h -0.0177 z m -0.53763,-0.77435 0.25223,-0.76729 h 0.0145 v 0.0113 l -0.004,7.1e-4 0.004,-7.1e-4 v -0.0113 h 0.008 l 0.24942,0.76729 z m 0.0317,-0.0229 h 0.46037 l -0.22966,-0.7045 z m 0.22401,-0.72955 0.005,-0.002 -0.005,0.002"
       style="fill:#ffffff;fill-opacity:1;fill-rule:nonzero;stroke:none;stroke-width:0.03527778"
       id="path1350" />
    <path
       d="m 140.41294,123.15315 c 0,0.10548 0.0737,0.13653 0.15769,0.14746 0.1076,0.008 0.22613,0.008 0.34784,-0.006 0.11042,-0.0131 0.20461,-0.0759 0.25224,-0.14146 0.042,-0.0582 0.0656,-0.13159 0.0815,-0.1898 h 0.0762 c -0.0289,0.14994 -0.066,0.29775 -0.097,0.44768 -0.23143,0 -0.46355,-0.0106 -0.69462,-0.0106 -0.23213,0 -0.46285,0.0106 -0.69498,0.0106 v -0.079 h 0.0363 c 0.0952,0 0.19791,-0.0134 0.19791,-0.17639 v -1.3522 c 0,-0.13723 -0.10266,-0.15028 -0.19791,-0.15028 h -0.0363 v -0.0794 c 0.1397,0 0.27623,0.0106 0.41593,0.0106 0.13441,0 0.26529,-0.0106 0.3997,-0.0106 v 0.0794 h -0.066 c -0.0995,0 -0.17851,0.003 -0.17851,0.14217 v 1.35784"
       style="fill:#ffffff;fill-opacity:1;fill-rule:nonzero;stroke:none;stroke-width:0.03527778"
       id="path1352" />
    <path
       d="m 141.23138,123.42162 c -0.23212,0 -0.46355,-0.0102 -0.69462,-0.0102 -0.23212,0 -0.46284,0.0102 -0.69567,0.0102 h -0.0106 v -0.0106 -0.091 h 0.0106 0.037 c 0.0952,-0.002 0.18556,-0.008 0.18591,-0.1644 v -1.35255 c -2.7e-4,-0.12806 -0.09,-0.13688 -0.18591,-0.13864 h -0.0476 v -0.0113 -0.09 h 0.0106 c 0.1404,0 0.27763,0.01 0.41663,0.01 0.1337,0 0.26458,-0.01 0.39969,-0.01 h 0.0109 v 0.0106 0.0907 h -0.0109 -0.066 c -0.10124,0.003 -0.16545,-0.002 -0.16757,0.13088 v 1.35784 c 8e-4,0.0977 0.0656,0.12453 0.14746,0.13547 0.0462,0.003 0.0953,0.005 0.14605,0.005 0.0642,0 0.13088,-0.003 0.19897,-0.01 0.1076,-0.0127 0.20003,-0.0748 0.24483,-0.13794 0.0406,-0.0557 0.0639,-0.12806 0.079,-0.18521 l 0.003,-0.009 h 0.009 0.0903 l -0.002,0.0138 c -0.0303,0.15064 -0.0663,0.2974 -0.0988,0.44733 l -0.002,0.008 z m -0.01,-0.0226 c 0.0303,-0.14253 0.0646,-0.28223 0.0928,-0.42404 h -0.0543 c -0.0159,0.0568 -0.0399,0.1277 -0.0804,0.18521 -0.0497,0.0677 -0.14675,0.13193 -0.26141,0.14605 -0.0688,0.007 -0.13617,0.0113 -0.20108,0.0113 -0.0508,0 -0.10054,-0.002 -0.14817,-0.006 -0.0861,-0.01 -0.16863,-0.0462 -0.16792,-0.1584 v -1.35784 c 0,-0.14676 0.0921,-0.15381 0.19015,-0.15381 h 0.0543 v -0.0561 c -0.12947,7.1e-4 -0.25718,0.0106 -0.38806,0.0106 -0.13687,0 -0.26987,-0.01 -0.40498,-0.0106 v 0.0561 h 0.0254 c 0.0938,0 0.20955,0.0162 0.20955,0.16157 v 1.35255 c 0,0.17004 -0.1143,0.18768 -0.20955,0.18768 h -0.0254 v 0.0557 c 0.22789,0 0.45543,-0.0102 0.68403,-0.0102 0.22895,0 0.45685,0.0102 0.68509,0.0102"
       style="fill:#ffffff;fill-opacity:1;fill-rule:nonzero;stroke:none;stroke-width:0.03527778"
       id="path1354" />
  </g>
</svg>
