<?xml version="1.0" encoding="UTF-8" standalone="no"?>
<svg
   xmlns:dc="http://purl.org/dc/elements/1.1/"
   xmlns:cc="http://creativecommons.org/ns#"
   xmlns:rdf="http://www.w3.org/1999/02/22-rdf-syntax-ns#"
   xmlns:svg="http://www.w3.org/2000/svg"
   xmlns="http://www.w3.org/2000/svg"
   xmlns:xlink="http://www.w3.org/1999/xlink"
   xmlns:sodipodi="http://sodipodi.sourceforge.net/DTD/sodipodi-0.dtd"
   xmlns:inkscape="http://www.inkscape.org/namespaces/inkscape"
   id="svg4551"
   version="1.1"
   viewBox="0 0 44.248562 27.654961"
   height=""
   width=""
   sodipodi:docname="elo.svg"
   inkscape:version="0.92.3 (2405546, 2018-03-11)">
  <sodipodi:namedview
     pagecolor="#ffffff"
     bordercolor="#666666"
     borderopacity="1"
     objecttolerance="10"
     gridtolerance="10"
     guidetolerance="10"
     inkscape:pageopacity="0"
     inkscape:pageshadow="2"
     inkscape:window-width="1366"
     inkscape:window-height="711"
     id="namedview19"
     showgrid="false"
     inkscape:zoom="8.2036565"
     inkscape:cx="15.927812"
     inkscape:cy="22.025847"
     inkscape:window-x="0"
     inkscape:window-y="0"
     inkscape:window-maximized="1"
     inkscape:current-layer="svg4551" />
  <defs
     id="defs4545">
    <linearGradient
       inkscape:collect="always"
       id="linearGradient884">
      <stop
         style="stop-color:#000000;stop-opacity:1"
         offset="0"
         id="stop880" />
      <stop
         style="stop-color:#333333;stop-opacity:0;"
         offset="1"
         id="stop882" />
    </linearGradient>
    <linearGradient
       inkscape:collect="always"
       xlink:href="#linearGradient884"
       id="linearGradient888"
       x1="48.332108"
       y1="29.727209"
       x2="50.099613"
       y2="33.627907"
       gradientUnits="userSpaceOnUse" />
  </defs>
  <metadata
     id="metadata4548">
    <rdf:RDF>
      <cc:Work
         rdf:about="">
        <dc:format>image/svg+xml</dc:format>
        <dc:type
           rdf:resource="http://purl.org/dc/dcmitype/StillImage" />
        <dc:title></dc:title>
      </cc:Work>
    </rdf:RDF>
  </metadata>
  <rect
     style="opacity:0.93500001;fill:url(#linearGradient888);fill-opacity:1;fill-rule:nonzero;stroke:none;stroke-width:1.58000004;stroke-linecap:round;stroke-linejoin:miter;stroke-miterlimit:4;stroke-dasharray:none;stroke-dashoffset:0;stroke-opacity:1;paint-order:normal"
     id="rect875"
     width="44.187614"
     height="27.548693"
     x="0.060948242"
     y="0.1062694" />
  <g
     id="g12"
     transform="matrix(0.00213977,0,0,-0.00256357,0.8721645,23.693516)"
     style="stroke-width:56.92868805">
    <path
       d="m 3115.45,5966.64 c 224.52,74.99 464.54,115.34 714.38,115.34 1089.74,0 1999.51,-773.98 2207.9,-1802.84 L 7582.45,4594.2 C 7227.97,6342.58 5682.8,7658.38 3829.83,7658.38 c -424.58,0 -832.45,-69.17 -1214.12,-196.65 l 499.74,-1495.09"
       style="fill:#fbc707;fill-opacity:1;fill-rule:nonzero;stroke:none;stroke-width:56.92868805"
       id="path14"
       inkscape:connector-curvature="0" />
    <path
       d="m 1292.47,960.48 1044.59,1181.03 c -466.32,413.13 -760.47,1016.02 -760.47,1687.68 0,671.17 293.8,1273.76 759.83,1686.42 L 1291.58,6696.72 C 499.727,5995.15 0,4970.34 0,3829.19 0,2687.26 499.926,1662.14 1292.47,960.48"
       style="fill:#38a7e4;fill-opacity:1;fill-rule:nonzero;stroke:none;stroke-width:56.92868805"
       id="path16"
       inkscape:connector-curvature="0" />
    <path
       d="M 6037.28,3377.07 C 5828.05,2348.81 4919.18,1576.3 3829.83,1576.3 c -250.04,0 -490.69,40.25 -715.07,115.73 L 2614.38,196.359 C 2996.05,68.9688 3404.75,0 3829.83,0 5681.03,0 7225.9,1313.62 7581.81,3060.42 l -1544.53,316.65"
       style="fill:#ef3120;fill-opacity:1;fill-rule:nonzero;stroke:none;stroke-width:56.92868805"
       id="path18"
       inkscape:connector-curvature="0" />
    <path
       d="m 12020.1,2557.61 c -0.5,-0.41 -0.8,-0.8 -1.3,-1.2 l -43.9,29.61 c -126.5,-205.34 -323.9,-371.6 -573.1,-479.65 -473.9,-206.13 -913.1,-153.15 -1228.5,123.54 l -29,-44.11 c -0.3,0.49 -0.5,0.88 -0.9,0.88 l -537.87,-804.67 c 133.51,-92.84 276.88,-171.38 427.47,-234.24 594.1,-246.77 1202.1,-235.438 1801,25.05 433.2,187.68 773.1,474.04 1005.4,836.85 z M 10340.9,4542.99 C 9840.38,4327.88 9582.35,3858.4 9635.43,3307.89 l 2120.27,912.54 c -364.6,428.43 -839.1,570.43 -1414.8,322.56 z M 8933.18,2091.67 c -50.61,81.98 -119.35,213.14 -160.84,309.62 -244.61,567.87 -256.34,1155.56 -49.72,1719.78 227.14,618.67 661,1092.4 1221.56,1333.56 704.82,303.32 1484.32,243.52 2159.82,-157.28 429.2,-246.2 733.3,-626.28 964.3,-1163.75 29.5,-68.77 55.3,-142.29 80.6,-204.75 L 8933.18,2091.67"
       style="fill:#ffffff;fill-opacity:1;fill-rule:nonzero;stroke:none;stroke-width:56.92868805"
       id="path20"
       inkscape:connector-curvature="0" />
    <path
       d="M 14622.5,6639.79 V 2165.97 L 15318,1884.04 14922.8,961.871 14155,1281.56 c -172.2,74.6 -289.6,188.76 -378.4,317.73 -84.8,131.43 -148.4,311.71 -148.4,554.45 v 4486.05 h 994.3"
       style="fill:#ffffff;fill-opacity:1;fill-rule:nonzero;stroke:none;stroke-width:56.92868805"
       id="path22"
       inkscape:connector-curvature="0" />
    <g
       id="g24"
       transform="scale(1.0343)"
       style="stroke-width:56.92868805">
      <path
         d="m 15879.6,3196.02 c 0.5,368.33 163,698.6 420.4,923.08 l -689.9,769.31 c -467.9,-413.66 -762.7,-1018.01 -763.2,-1691.36 -0.7,-673.61 293.6,-1278.65 761,-1693.35 l 689.1,770.09 c -256,225.42 -417.7,554.74 -417.4,922.23"
         style="fill:#ffffff;fill-opacity:1;fill-rule:nonzero;stroke:none;stroke-width:56.92868805"
         id="path26"
         inkscape:connector-curvature="0" />
    </g>
    <g
       id="g28"
       transform="scale(1.22596)"
       style="stroke-width:56.92868805">
      <path
         d="m 14431.4,1660.67 c -114.6,0.33 -224.9,19.24 -327.9,53.53 l -278.1,-826.517 c 190,-63.821 393.5,-98.51 605.1,-98.845 921.7,-0.873 1691.3,653.082 1869.5,1522.412 l -854.4,174.49 c -97.2,-471.35 -514.4,-825.47 -1014.2,-825.07"
         style="fill:#ffffff;fill-opacity:1;fill-rule:nonzero;stroke:none;stroke-width:56.92868805"
         id="path30"
         inkscape:connector-curvature="0" />
    </g>
    <g
       id="g32"
       transform="scale(1.22601)"
       style="stroke-width:56.92868805">
      <path
         d="m 14433.2,4601.92 c -211.2,0.24 -414.6,-34.13 -604.4,-97.31 l 275.5,-827.19 c 103.2,34.12 213.6,52.94 328,52.94 501.1,-0.47 918.5,-356.69 1013.4,-829.2 l 854.5,173.28 c -175.8,870.5 -944.6,1526.83 -1867,1527.48"
         style="fill:#ffffff;fill-opacity:1;fill-rule:nonzero;stroke:none;stroke-width:56.92868805"
         id="path34"
         inkscape:connector-curvature="0" />
    </g>
  </g>
</svg>
