<?xml version="1.0" encoding="UTF-8" standalone="no"?>
<svg
   xmlns:dc="http://purl.org/dc/elements/1.1/"
   xmlns:cc="http://creativecommons.org/ns#"
   xmlns:rdf="http://www.w3.org/1999/02/22-rdf-syntax-ns#"
   xmlns:svg="http://www.w3.org/2000/svg"
   xmlns="http://www.w3.org/2000/svg"
   id="svg3786"
   version="1.1"
   viewBox="0 0 44.248562 27.655302"
   height=""
   width="">
  <defs
     id="defs3780" />
  <metadata
     id="metadata3783">
    <rdf:RDF>
      <cc:Work
         rdf:about="">
        <dc:format>image/svg+xml</dc:format>
        <dc:type
           rdf:resource="http://purl.org/dc/dcmitype/StillImage" />
        <dc:title></dc:title>
      </cc:Work>
    </rdf:RDF>
  </metadata>
  <g
     transform="translate(-68.590009,-86.624727)"
     id="layer1">
    <path
       d="m 112.83857,112.80542 c 0,0.81492 -0.66075,1.47461 -1.47496,1.47461 H 70.064259 c -0.81421,0 -1.47425,-0.65969 -1.47425,-1.47461 V 88.100044 c 0,-0.814917 0.66004,-1.475317 1.47425,-1.475317 h 41.299351 c 0.81421,0 1.47496,0.6604 1.47496,1.475317 v 24.705376"
       style="fill:#13457c;fill-opacity:1;fill-rule:nonzero;stroke:none;stroke-width:0.03527778"
       id="path1118" />
    <path
       d="m 96.023769,108.39111 0.40993,-0.0106 0.40463,-0.0293 0.39617,-0.0508 0.39406,-0.0699 0.38311,-0.0882 0.37747,-0.10724 0.36936,-0.12594 0.36125,-0.14182 0.35348,-0.16051 0.3429,-0.17427 0.332321,-0.19297 0.32385,-0.20603 0.31079,-0.22189 0.29951,-0.23601 0.28928,-0.24906 0.27587,-0.26494 0.26529,-0.27587 0.24871,-0.28963 0.23636,-0.29951 0.2219,-0.3108 0.20602,-0.32385 0.19262,-0.33267 0.17392,-0.34254 0.16051,-0.35313 0.14182,-0.36195 0.12594,-0.36936 0.10759,-0.37712 0.0882,-0.38312 0.0695,-0.3937 0.0512,-0.39652 0.0296,-0.40428 0.0102,-0.40958 -0.0102,-0.4071 -0.0296,-0.401818 -0.0512,-0.39617 -0.0695,-0.388408 -0.0882,-0.382764 -0.10759,-0.375011 -0.12594,-0.369358 -0.14182,-0.359128 -0.16051,-0.350308 -0.17392,-0.343253 -0.19262,-0.329141 -0.20602,-0.32385 -0.2219,-0.310798 -0.23636,-0.297391 -0.24871,-0.288572 -0.26529,-0.276225 -0.27587,-0.262467 -0.28928,-0.249061 -0.29951,-0.235656 -0.31079,-0.22225 -0.32385,-0.206375 -0.332321,-0.189794 -0.3429,-0.17392 -0.35348,-0.161219 -0.36125,-0.141817 -0.36936,-0.125589 -0.37747,-0.107244 -0.38311,-0.08855 -0.39406,-0.06914 -0.39617,-0.05115 -0.40463,-0.02963 -0.40993,-0.01093 -0.4064,0.01093 -0.40464,0.02963 -0.39617,0.05115 -0.39123,0.06914 -0.38311,0.08855 -0.37748,0.107244 -0.36653,0.125589 -0.36195,0.141817 -0.35066,0.161219 -0.33973,0.173919 -0.33196,0.189795 -0.32174,0.206375 -0.31009,0.22225 -0.30056,0.235655 -0.28646,0.249062 -0.27552,0.262466 -0.26282,0.276225 -0.24871,0.288572 -0.23565,0.297392 -0.21978,0.310797 -0.20673,0.32385 -0.18944,0.329142 -0.1771,0.343253 -0.15769,0.350308 -0.14182,0.359128 -0.12347,0.369358 -0.10689,0.375003 -0.0889,0.382764 -0.0695,0.388408 -0.0501,0.39617 -0.0296,0.401816 -0.0113,0.4071 0.0113,0.40958 0.0296,0.40428 0.0501,0.39652 0.0695,0.3937 0.0889,0.38312 0.10689,0.37712 0.12347,0.36936 0.14182,0.36195 0.15769,0.35313 0.1771,0.34255 0.18944,0.33266 0.20673,0.32385 0.21978,0.3108 0.23565,0.29951 0.24871,0.28963 0.26282,0.27587 0.27552,0.26494 0.28646,0.24906 0.30056,0.23601 0.31009,0.2219 0.32174,0.20602 0.33196,0.19297 0.33973,0.17427 0.35066,0.16051 0.36195,0.14182 0.36653,0.12594 0.37748,0.10725 0.38311,0.0882 0.39123,0.0699 0.39617,0.0508 0.40464,0.0293 0.4064,0.0106 v 0 0"
       style="fill:#fbb231;fill-opacity:1;fill-rule:evenodd;stroke:none;stroke-width:0.03527778"
       id="path1120" />
    <path
       d="m 85.404099,108.39111 0.4064,-0.0106 0.40464,-0.0293 0.39687,-0.0508 0.39053,-0.0699 0.38311,-0.0882 0.37677,-0.10724 0.36724,-0.12594 0.36195,-0.14182 0.35066,-0.16051 0.34043,-0.17427 0.33126,-0.19297 0.32173,-0.20603 0.3108,-0.22189 0.29986,-0.23601 0.28646,-0.24906 0.27587,-0.26494 0.26247,-0.27587 0.24941,-0.28963 0.23495,-0.29951 0.21978,-0.3108 0.20602,-0.32385 0.19015,-0.33267 0.17709,-0.34254 0.1577,-0.35313 0.14181,-0.36195 0.12348,-0.36936 0.10689,-0.37712 0.0889,-0.38312 0.0688,-0.3937 0.0515,-0.39652 0.0289,-0.40428 0.0106,-0.40958 -0.0106,-0.4071 -0.0289,-0.401818 -0.0515,-0.39617 -0.0688,-0.388408 -0.0889,-0.382764 -0.10689,-0.375011 -0.12348,-0.369358 -0.14181,-0.359128 -0.1577,-0.350308 -0.17709,-0.343253 -0.19015,-0.329141 -0.20602,-0.32385 -0.21978,-0.310798 -0.23495,-0.297391 -0.24941,-0.288572 -0.26247,-0.276225 -0.27587,-0.262467 -0.28646,-0.249061 -0.29986,-0.235656 -0.3108,-0.22225 -0.32173,-0.206375 -0.33126,-0.189794 -0.34043,-0.17392 -0.35066,-0.161219 -0.36195,-0.141817 -0.36724,-0.125589 -0.37677,-0.107244 -0.38311,-0.08855 -0.39053,-0.06914 -0.39687,-0.05115 -0.40464,-0.02963 -0.4064,-0.01093 -0.40993,0.01093 -0.40463,0.02963 -0.39617,0.05115 -0.39406,0.06914 -0.38241,0.08855 -0.37747,0.107245 -0.37006,0.125589 -0.36125,0.141816 -0.35348,0.16122 -0.3422,0.173919 -0.33231,0.189795 -0.32456,0.206375 -0.31044,0.22225 -0.29986,0.235655 -0.28928,0.249061 -0.27587,0.262467 -0.26529,0.276225 -0.24871,0.288572 -0.23566,0.297392 -0.22225,0.310797 -0.20602,0.32385 -0.19297,0.329141 -0.17392,0.343253 -0.16122,0.350308 -0.14111,0.359128 -0.12594,0.369358 -0.1076,0.375003 -0.0882,0.382764 -0.0695,0.388408 -0.0512,0.39617 -0.0296,0.401816 -0.0102,0.4071 0.0102,0.40958 0.0296,0.40428 0.0512,0.39652 0.0695,0.3937 0.0882,0.38312 0.1076,0.37712 0.12594,0.36936 0.14111,0.36195 0.16122,0.35313 0.17392,0.34255 0.19297,0.33266 0.20602,0.32385 0.22225,0.3108 0.23566,0.29951 0.24871,0.28963 0.26529,0.27587 0.27587,0.26494 0.28928,0.24906 0.29986,0.23601 0.31044,0.2219 0.32456,0.20602 0.33231,0.19297 0.3422,0.17427 0.35348,0.16051 0.36125,0.14182 0.37006,0.12594 0.37747,0.10725 0.38241,0.0882 0.39406,0.0699 0.39617,0.0508 0.40463,0.0293 0.40993,0.0106 v 0 0"
       style="fill:#ec1c2e;fill-opacity:1;fill-rule:evenodd;stroke:none;stroke-width:0.03527778"
       id="path1122" />
    <path
       d="m 89.784889,95.559177 h 4.21817 V 95.12773 h -3.85445 l -0.36372,0.431447 v 0 0"
       style="fill:#fbb231;fill-opacity:1;fill-rule:evenodd;stroke:none;stroke-width:0.03527778"
       id="path1124" />
    <path
       d="m 89.153069,96.517674 h 4.84999 v -0.431447 h -4.59599 l -0.254,0.431447 v 0 0"
       style="fill:#fbb231;fill-opacity:1;fill-rule:evenodd;stroke:none;stroke-width:0.03527778"
       id="path1126" />
    <path
       d="m 88.681049,97.473702 h 5.32201 v -0.431448 h -5.13398 l -0.18803,0.431448 v 0 0"
       style="fill:#fbb231;fill-opacity:1;fill-rule:evenodd;stroke:none;stroke-width:0.03527778"
       id="path1128" />
    <path
       d="m 88.357199,98.432199 h 5.64586 v -0.430742 h -5.51145 l -0.13441,0.430742 v 0 0"
       style="fill:#fbb231;fill-opacity:1;fill-rule:evenodd;stroke:none;stroke-width:0.03527778"
       id="path1130" />
    <path
       d="m 88.545229,103.06523 h 5.47088 v -0.43145 h -5.60529 l 0.13441,0.43145 v 0 0"
       style="fill:#fbb231;fill-opacity:1;fill-rule:evenodd;stroke:none;stroke-width:0.03527778"
       id="path1132" />
    <path
       d="m 88.949159,104.02373 h 5.06695 v -0.4311 h -5.26768 l 0.20073,0.4311 v 0 0"
       style="fill:#fbb231;fill-opacity:1;fill-rule:evenodd;stroke:none;stroke-width:0.03527778"
       id="path1134" />
    <path
       d="m 89.516779,104.97975 h 4.49933 v -0.43109 h -4.77026 l 0.27093,0.43109 v 0 0"
       style="fill:#fbb231;fill-opacity:1;fill-rule:evenodd;stroke:none;stroke-width:0.03527778"
       id="path1136" />
    <path
       d="m 90.298889,105.93825 h 3.71722 v -0.43392 h -4.09504 l 0.37782,0.43392 v 0 0"
       style="fill:#fbb231;fill-opacity:1;fill-rule:evenodd;stroke:none;stroke-width:0.03527778"
       id="path1138" />
    <path
       d="m 88.167759,99.388227 h 5.8353 v -0.431095 h -5.75275 l -0.0825,0.431095 v 0 0"
       style="fill:#fbb231;fill-opacity:1;fill-rule:evenodd;stroke:none;stroke-width:0.03527778"
       id="path1140" />
    <path
       d="m 91.723759,102.1092 h 2.22497 v -0.43145 h -2.14524 l -0.0797,0.43145 v 0 0"
       style="fill:#fbb231;fill-opacity:1;fill-rule:evenodd;stroke:none;stroke-width:0.03527778"
       id="path1142" />
    <path
       d="m 91.900149,101.15282 h 2.04858 v -0.43356 h -1.96815 l -0.0804,0.43356 v 0 0"
       style="fill:#fbb231;fill-opacity:1;fill-rule:evenodd;stroke:none;stroke-width:0.03527778"
       id="path1144" />
    <path
       d="m 88.020299,100.71926 h 0.57785 v 0.43356 h -0.55104 l -0.0268,-0.43356 v 0 0"
       style="fill:#fbb231;fill-opacity:1;fill-rule:evenodd;stroke:none;stroke-width:0.03527778"
       id="path1146" />
    <path
       d="m 86.940449,100.19679 -0.037,-0.003 -0.0381,-0.005 -0.0342,-0.005 -0.0346,-0.005 -0.0325,-0.005 -0.0342,-0.006 -0.0353,-0.005 -0.0377,-0.006 -0.0374,-0.005 -0.0427,-0.003 -0.0483,-0.003 -0.0501,-0.003 h -0.0564 l -0.0621,0.003 -0.0695,0.006 -0.0773,0.005 -0.054,0.008 -0.0508,0.008 -0.0455,0.0159 -0.0406,0.0159 -0.0374,0.0187 -0.0342,0.0215 -0.0272,0.0272 -0.024,0.024 -0.0166,0.0293 -0.0138,0.0296 -0.005,0.0317 v 0.0325 l 0.008,0.0349 0.0102,0.0346 0.0215,0.0349 0.0268,0.0349 0.0536,0.0504 0.0649,0.0402 0.0744,0.0349 0.0804,0.0293 0.0857,0.0272 0.0885,0.0293 0.0882,0.0325 0.0857,0.0346 0.0804,0.0455 0.0744,0.0561 0.0677,0.0674 0.0557,0.0829 0.0427,0.1016 0.0268,0.1203 0.0109,0.14499 -0.0109,0.16863 -0.0187,0.12594 -0.0325,0.10971 -0.0427,0.1016 -0.0536,0.0882 -0.0614,0.078 -0.0695,0.0667 -0.0751,0.0589 -0.0825,0.0512 -0.0857,0.0402 -0.0885,0.0346 -0.091,0.0268 -0.0938,0.0215 -0.091,0.0162 -0.0889,0.008 -0.0882,0.006 -0.0825,0.002 h -0.11501 l -0.1076,-0.002 h -0.0938 l -0.0882,-0.002 -0.0804,-0.003 -0.0723,-0.005 -0.0642,-0.005 -0.0614,-0.008 -0.0565,-0.005 -0.0508,-0.0106 -0.0505,-0.009 -0.0462,-0.013 -0.0455,-0.0109 -0.0427,-0.0162 -0.0427,-0.0155 -0.0455,-0.0162 0.12065,-0.59196 0.024,0.006 0.0296,0.008 0.0374,0.0102 0.0455,0.0113 0.0483,0.0102 0.0529,0.0109 0.0593,0.0131 0.0642,0.0109 0.0667,0.0106 0.0695,0.0109 0.073,0.008 0.0744,0.008 0.078,0.002 0.078,0.003 h 0.0776 l 0.0773,-0.003 0.078,-0.0159 0.0621,-0.0215 0.048,-0.0293 0.0374,-0.0374 0.0261,-0.0378 0.0212,-0.043 0.0141,-0.0423 0.0109,-0.0402 0.005,-0.078 -0.024,-0.067 -0.0455,-0.0536 -0.0667,-0.0452 -0.0801,-0.0402 -0.0942,-0.0402 -0.10407,-0.0378 -0.10477,-0.0427 -0.10689,-0.048 -0.10196,-0.0561 -0.0938,-0.0699 -0.0854,-0.0829 -0.0674,-0.10195 -0.0476,-0.12065 -0.024,-0.14429 0.002,-0.17109 0.0134,-0.10478 0.0183,-0.0995 0.0272,-0.0907 0.0321,-0.0857 0.0427,-0.08008 0.0483,-0.06985 0.0564,-0.06703 0.067,-0.05856 0.0776,-0.0508 0.0857,-0.04304 0.0963,-0.04022 0.1076,-0.02928 0.11995,-0.02469 0.13158,-0.01834 0.14394,-0.01093 0.15839,-0.0028 h 0.0984 l 0.091,0.0028 0.0833,0.0032 0.0751,0.0025 0.067,0.0053 0.0621,0.0053 0.0529,0.0053 0.0483,0.0056 0.0455,0.0049 0.037,0.0081 0.036,0.0056 0.0318,0.0053 0.0261,0.0049 0.0247,0.0032 0.024,0.0053 0.0208,0.0028 -0.13652,0.60466 v 0 0"
       style="fill:#ffffff;fill-opacity:1;fill-rule:evenodd;stroke:none;stroke-width:0.03527778"
       id="path1148" />
    <path
       d="m 86.940449,100.19679 v 0 l -0.037,-0.003 -0.0381,-0.005 -0.0342,-0.005 -0.0346,-0.005 -0.0325,-0.005 -0.0342,-0.006 -0.0353,-0.005 -0.0377,-0.006 -0.0374,-0.005 -0.0427,-0.003 -0.0483,-0.003 -0.0501,-0.003 h -0.0564 l -0.0621,0.003 -0.0695,0.006 -0.0773,0.005 v 0 l -0.054,0.008 -0.0508,0.008 -0.0455,0.0159 -0.0406,0.0159 -0.0374,0.0187 -0.0342,0.0215 -0.0272,0.0272 -0.024,0.024 -0.0166,0.0293 -0.0138,0.0296 -0.005,0.0317 v 0.0325 l 0.008,0.0349 0.0102,0.0346 0.0215,0.0349 0.0268,0.0349 v 0 l 0.0536,0.0504 0.0649,0.0402 0.0744,0.0349 0.0804,0.0293 0.0857,0.0272 0.0885,0.0293 0.0882,0.0325 0.0857,0.0346 0.0804,0.0455 0.0744,0.0561 0.0677,0.0674 0.0557,0.0829 0.0427,0.1016 0.0268,0.1203 0.0109,0.14499 -0.0109,0.16863 v 0 l -0.0187,0.12594 -0.0325,0.10971 -0.0427,0.1016 -0.0536,0.0882 -0.0614,0.078 -0.0695,0.0667 -0.0751,0.0589 -0.0825,0.0512 -0.0857,0.0402 -0.0885,0.0346 -0.091,0.0268 -0.0938,0.0215 -0.091,0.0162 -0.0889,0.008 -0.0882,0.006 -0.0825,0.002 v 0 h -0.11501 l -0.1076,-0.002 h -0.0938 l -0.0882,-0.002 -0.0804,-0.003 -0.0723,-0.005 -0.0642,-0.005 -0.0614,-0.008 -0.0565,-0.005 -0.0508,-0.0106 -0.0505,-0.009 -0.0462,-0.013 -0.0455,-0.0109 -0.0427,-0.0162 -0.0427,-0.0155 -0.0455,-0.0162 0.12065,-0.59196 v 0 l 0.024,0.006 0.0296,0.008 0.0374,0.0102 0.0455,0.0113 0.0483,0.0102 0.0529,0.0109 0.0593,0.0131 0.0642,0.0109 0.0667,0.0106 0.0695,0.0109 0.073,0.008 0.0744,0.008 0.078,0.002 0.078,0.003 h 0.0776 l 0.0773,-0.003 v 0 l 0.078,-0.0159 0.0621,-0.0215 0.048,-0.0293 0.0374,-0.0374 0.0261,-0.0378 0.0212,-0.043 0.0141,-0.0423 0.0109,-0.0402 v 0 l 0.005,-0.078 -0.024,-0.067 -0.0455,-0.0536 -0.0667,-0.0452 -0.0801,-0.0402 -0.0942,-0.0402 -0.10407,-0.0378 -0.10477,-0.0427 -0.10689,-0.048 -0.10196,-0.0561 -0.0938,-0.0699 -0.0854,-0.0829 -0.0674,-0.10195 -0.0476,-0.12065 -0.024,-0.14429 0.002,-0.17109 v 0 l 0.0134,-0.10478 0.0183,-0.0995 0.0272,-0.0907 0.0321,-0.0857 0.0427,-0.08008 0.0483,-0.06985 0.0564,-0.06703 0.067,-0.05856 0.0776,-0.0508 0.0857,-0.04304 0.0963,-0.04022 0.1076,-0.02928 0.11995,-0.02469 0.13158,-0.01834 0.14394,-0.01093 0.15839,-0.0028 v 0 h 0.0984 l 0.091,0.0028 0.0833,0.0032 0.0751,0.0025 0.067,0.0053 0.0621,0.0053 0.0529,0.0053 0.0483,0.0056 0.0455,0.0049 0.037,0.0081 0.036,0.0056 0.0318,0.0053 0.0261,0.0049 0.0247,0.0032 0.024,0.0053 0.0208,0.0028 -0.13652,0.60466"
       style="fill:none;stroke:#ffffff;stroke-width:0.07619999;stroke-linecap:butt;stroke-linejoin:miter;stroke-miterlimit:2.61310005;stroke-dasharray:none;stroke-opacity:1"
       id="path1150" />
    <path
       d="m 87.575799,98.930674 h 0.74154 l -0.10972,0.648053 h 0.44733 l -0.0967,0.605013 -0.47131,-0.0134 -0.25683,1.49401 -0.003,0.0536 0.013,0.0459 0.0268,0.0346 0.0353,0.0293 0.0483,0.0191 0.0536,0.0159 0.0586,0.0106 0.0642,0.006 0.0593,-0.003 0.0536,-0.006 0.0476,-0.008 0.0434,-0.0106 0.0342,-0.0109 0.0243,-0.008 0.0159,-0.006 0.005,-0.002 -0.0935,0.49813 -0.0187,0.0134 -0.0187,0.0106 -0.0194,0.0106 -0.0183,0.0106 -0.0187,0.008 -0.0215,0.008 -0.024,0.008 -0.024,0.008 -0.0268,0.008 -0.0272,0.006 -0.0314,0.005 -0.0325,0.006 -0.0353,0.005 -0.0399,0.005 -0.0427,0.005 -0.0455,0.005 h -0.2032 l -0.10759,-0.008 -0.0938,-0.0106 -0.0854,-0.0159 -0.0723,-0.019 -0.0621,-0.0243 -0.0501,-0.0261 -0.0455,-0.0325 -0.0353,-0.0349 -0.0268,-0.0374 -0.0187,-0.0455 -0.0138,-0.0459 -0.007,-0.0504 -0.003,-0.0564 v -0.0589 l 0.008,-0.0614 0.008,-0.067 0.51188,-2.921356 v 0 0"
       style="fill:#ffffff;fill-opacity:1;fill-rule:evenodd;stroke:none;stroke-width:0.03527778"
       id="path1152" />
    <path
       d="m 87.575799,98.930674 h 0.74154 l -0.10972,0.648053 h 0.44733 l -0.0967,0.605013 -0.47131,-0.0134 -0.25683,1.49401 v 0 l -0.003,0.0536 0.013,0.0459 0.0268,0.0346 0.0353,0.0293 0.0483,0.0191 0.0536,0.0159 0.0586,0.0106 0.0642,0.006 v 0 l 0.0593,-0.003 0.0536,-0.006 0.0476,-0.008 0.0434,-0.0106 0.0342,-0.0109 0.0243,-0.008 0.0159,-0.006 0.005,-0.002 -0.0935,0.49813 v 0 l -0.0187,0.0134 -0.0187,0.0106 -0.0194,0.0106 -0.0183,0.0106 -0.0187,0.008 -0.0215,0.008 -0.024,0.008 -0.024,0.008 -0.0268,0.008 -0.0272,0.006 -0.0314,0.005 -0.0325,0.006 -0.0353,0.005 -0.0399,0.005 -0.0427,0.005 -0.0455,0.005 h -0.2032 v 0 l -0.10759,-0.008 -0.0938,-0.0106 -0.0854,-0.0159 -0.0723,-0.019 -0.0621,-0.0243 -0.0501,-0.0261 -0.0455,-0.0325 -0.0353,-0.0349 -0.0268,-0.0374 -0.0187,-0.0455 -0.0138,-0.0459 -0.007,-0.0504 -0.003,-0.0564 v -0.0589 l 0.008,-0.0614 0.008,-0.067 0.51188,-2.921356"
       style="fill:none;stroke:#ffffff;stroke-width:0.07619999;stroke-linecap:butt;stroke-linejoin:miter;stroke-miterlimit:2.61310005;stroke-dasharray:none;stroke-opacity:1"
       id="path1154" />
    <path
       d="m 89.245849,101.19304 v 0 l -0.007,0.0455 -0.003,0.048 0.004,0.0512 0.0109,0.0508 0.0194,0.0511 0.0212,0.0487 0.0289,0.0504 0.0325,0.0452 0.0381,0.0459 0.0399,0.0406 0.0427,0.0399 0.0483,0.0318 0.0473,0.03 0.0547,0.0236 0.0529,0.0187 0.0536,0.0109 v 0 l 0.0705,0.0106 0.066,0.008 0.0695,0.008 0.0705,0.005 0.0688,0.003 h 0.0723 l 0.0702,-0.003 0.0716,-0.005 0.0723,-0.0109 0.073,-0.0134 0.0744,-0.0159 0.0723,-0.024 0.0751,-0.0293 0.078,-0.0328 0.0744,-0.0423 0.0787,-0.0455 -0.1076,0.65863 v 0 l -0.0427,0.0212 -0.0434,0.0219 -0.0427,0.0155 -0.0402,0.0166 -0.0399,0.0131 -0.0434,0.0138 -0.0427,0.0102 -0.0455,0.008 -0.0483,0.008 -0.0536,0.005 -0.0557,0.005 -0.0621,0.005 -0.0695,0.003 h -0.0723 l -0.0829,0.003 h -0.0882 v 0 l -0.13158,-0.003 -0.13371,-0.0134 -0.13335,-0.0187 -0.1344,-0.0325 -0.13089,-0.0399 -0.12629,-0.0515 -0.12065,-0.0663 -0.11218,-0.078 -0.10478,-0.091 -0.091,-0.10971 -0.0769,-0.12347 -0.0649,-0.14182 -0.0455,-0.15804 -0.0296,-0.17957 -0.007,-0.19791 0.013,-0.21942 v 0 l 0.0109,-0.0857 0.0159,-0.0995 0.0212,-0.10372 0.0296,-0.11324 0.0409,-0.1143 0.0473,-0.11571 0.0621,-0.11748 0.0744,-0.11253 0.0861,-0.107247 0.10407,-0.1016 0.11783,-0.09102 0.13441,-0.08043 0.15487,-0.06703 0.17462,-0.04833 0.19262,-0.03175 0.21731,-0.01129 v 0 l 0.10407,0.0028 0.11007,0.01094 0.109,0.01834 0.11007,0.02681 0.1076,0.04057 0.10407,0.04833 0.0963,0.06421 0.0882,0.07479 0.0808,0.09102 0.0667,0.107597 0.054,0.12277 0.037,0.14217 0.0215,0.16016 0.002,0.18203 -0.0183,0.20355 -0.0402,0.22543 -0.0138,0.16333 h -1.95192 l 0.12347,-0.5281 h 1.17263 v 0 l 0.006,-0.0663 -0.003,-0.0646 -0.006,-0.0589 -0.0102,-0.0533 -0.0194,-0.0512 -0.0187,-0.0459 -0.0268,-0.0399 -0.0268,-0.0374 -0.0317,-0.0321 -0.0349,-0.0268 -0.0402,-0.024 -0.0406,-0.0219 -0.042,-0.0155 -0.0434,-0.0109 -0.0455,-0.008 -0.0476,-0.005 v 0 l -0.0515,0.003 -0.0476,0.008 -0.0455,0.0113 -0.0455,0.0155 -0.0462,0.0215 -0.0399,0.0243 -0.0406,0.0293 -0.0339,0.0321 -0.0349,0.0374 -0.0325,0.0399 -0.0289,0.0434 -0.0251,0.0459 -0.024,0.048 -0.0187,0.0533 -0.0159,0.0536 -0.0109,0.0561 -0.10759,0.55421"
       style="fill:none;stroke:#ffffff;stroke-width:0.07619999;stroke-linecap:butt;stroke-linejoin:miter;stroke-miterlimit:2.61310005;stroke-dasharray:none;stroke-opacity:1"
       id="path1156" />
    <path
       d="m 95.633239,99.73924 -0.0353,-0.0187 -0.0342,-0.01623 -0.0374,-0.0187 -0.0406,-0.01905 -0.0399,-0.01588 -0.0455,-0.01587 -0.0455,-0.01623 -0.0483,-0.01587 -0.0508,-0.01341 -0.0511,-0.01058 -0.0564,-0.01094 -0.0557,-0.0081 -0.0614,-0.0056 -0.0621,-0.0049 h -0.0642 -0.0667 -0.0667 l -0.0705,0.0049 -0.0716,0.0085 -0.0759,0.01341 -0.0744,0.02117 -0.0748,0.02963 -0.0744,0.0374 -0.0759,0.04798 -0.0723,0.05927 -0.0699,0.0695 -0.0667,0.08573 -0.0642,0.09913 -0.0593,0.11747 -0.0557,0.13406 -0.0501,0.15064 -0.0434,0.17109 -0.0159,0.096 -0.0113,0.0938 -0.005,0.0938 0.003,0.091 0.008,0.091 0.0187,0.0857 0.024,0.0804 0.0296,0.0801 0.0399,0.0727 0.0483,0.0691 0.0564,0.0617 0.0642,0.0565 0.0723,0.0483 0.0825,0.0399 0.091,0.0349 0.10266,0.024 0.0346,0.008 0.0399,0.008 0.0483,0.006 0.0536,0.005 0.0586,0.006 h 0.0614 0.0674 l 0.067,-0.006 0.0695,-0.008 0.0695,-0.0134 0.067,-0.0187 0.0667,-0.0212 0.067,-0.0296 0.0617,-0.0346 0.0561,-0.043 0.0536,-0.048 -0.12065,0.71508 -0.0159,0.0131 -0.0166,0.0162 -0.0212,0.0191 -0.024,0.0152 -0.0289,0.0215 -0.0381,0.0191 -0.0427,0.0187 -0.0483,0.0159 -0.0614,0.0191 -0.0695,0.0134 -0.0804,0.0109 -0.0938,0.0106 -0.10407,0.005 -0.12065,0.003 -0.13617,-0.003 -0.15099,-0.008 -0.12277,-0.0134 -0.12312,-0.0268 -0.12347,-0.0399 -0.12277,-0.054 -0.11782,-0.0639 -0.11219,-0.0808 -0.10759,-0.0935 -0.0991,-0.10689 -0.0882,-0.12065 -0.0751,-0.1337 -0.0638,-0.14993 -0.0483,-0.16369 -0.0317,-0.17921 -0.0109,-0.19015 0.005,-0.20884 0.0289,-0.22261 0.0222,-0.10936 0.024,-0.10724 0.0261,-0.10442 0.0272,-0.0991 0.0296,-0.0938 0.0342,-0.09349 0.0353,-0.08855 0.037,-0.0829 0.0409,-0.08326 0.0399,-0.07761 0.0455,-0.07479 0.048,-0.0695 0.0483,-0.06738 0.0533,-0.06385 0.0536,-0.05891 0.0564,-0.05645 0.0614,-0.05362 0.0621,-0.0508 0.0639,-0.04551 0.0677,-0.04304 0.0716,-0.04022 0.0723,-0.03422 0.0751,-0.03246 0.078,-0.02963 0.0825,-0.02681 0.0826,-0.02117 0.0861,-0.01905 0.091,-0.01588 0.091,-0.01376 0.0963,-0.01023 0.0967,-0.0053 0.10195,-0.0032 0.0854,0.0032 0.0836,0.0053 0.0797,0.0081 0.0808,0.01058 0.0748,0.01058 0.0727,0.01587 0.0688,0.01376 0.0646,0.01587 0.0614,0.01587 0.054,0.01623 0.0508,0.01623 0.0427,0.01587 0.0374,0.01341 0.0325,0.01093 0.024,0.01058 0.0166,0.0056 -0.13441,0.741538 v 0 0"
       style="fill:#ffffff;fill-opacity:1;fill-rule:evenodd;stroke:none;stroke-width:0.03527778"
       id="path1158" />
    <path
       d="m 95.633239,99.73924 v 0 l -0.0353,-0.0187 -0.0342,-0.01623 -0.0374,-0.0187 -0.0406,-0.01905 -0.0399,-0.01588 -0.0455,-0.01587 -0.0455,-0.01623 -0.0483,-0.01587 -0.0508,-0.01341 -0.0511,-0.01058 -0.0564,-0.01094 -0.0557,-0.0081 -0.0614,-0.0056 -0.0621,-0.0049 h -0.0642 -0.0667 v 0 h -0.0667 l -0.0705,0.0049 -0.0716,0.0085 -0.0759,0.01341 -0.0744,0.02117 -0.0748,0.02963 -0.0744,0.0374 -0.0759,0.04798 -0.0723,0.05927 -0.0699,0.0695 -0.0667,0.08573 -0.0642,0.09913 -0.0593,0.11747 -0.0557,0.13406 -0.0501,0.15064 -0.0434,0.17109 v 0 l -0.0159,0.096 -0.0113,0.0938 -0.005,0.0938 0.003,0.091 0.008,0.091 0.0187,0.0857 0.024,0.0804 0.0296,0.0801 0.0399,0.0727 0.0483,0.0691 0.0564,0.0617 0.0642,0.0565 0.0723,0.0483 0.0825,0.0399 0.091,0.0349 0.10266,0.024 v 0 l 0.0346,0.008 0.0399,0.008 0.0483,0.006 0.0536,0.005 0.0586,0.006 h 0.0614 0.0674 l 0.067,-0.006 0.0695,-0.008 0.0695,-0.0134 0.067,-0.0187 0.0667,-0.0212 0.067,-0.0296 0.0617,-0.0346 0.0561,-0.043 0.0536,-0.048 -0.12065,0.71508 v 0 l -0.0159,0.0131 -0.0166,0.0162 -0.0212,0.0191 -0.024,0.0152 -0.0289,0.0215 -0.0381,0.0191 -0.0427,0.0187 -0.0483,0.0159 -0.0614,0.0191 -0.0695,0.0134 -0.0804,0.0109 -0.0938,0.0106 -0.10407,0.005 -0.12065,0.003 -0.13617,-0.003 -0.15099,-0.008 v 0 l -0.12277,-0.0134 -0.12312,-0.0268 -0.12347,-0.0399 -0.12277,-0.054 -0.11782,-0.0639 -0.11219,-0.0808 -0.10759,-0.0935 -0.0991,-0.10689 -0.0882,-0.12065 -0.0751,-0.1337 -0.0638,-0.14993 -0.0483,-0.16369 -0.0317,-0.17921 -0.0109,-0.19015 0.005,-0.20884 0.0289,-0.22261 v 0 l 0.0222,-0.10936 0.024,-0.10724 0.0261,-0.10442 0.0272,-0.0991 0.0296,-0.0938 0.0342,-0.09349 0.0353,-0.08855 0.037,-0.0829 0.0409,-0.08326 0.0399,-0.07761 0.0455,-0.07479 0.048,-0.0695 0.0483,-0.06738 0.0533,-0.06385 0.0536,-0.05891 0.0564,-0.05645 0.0614,-0.05362 0.0621,-0.0508 0.0639,-0.04551 0.0677,-0.04304 0.0716,-0.04022 0.0723,-0.03422 0.0751,-0.03246 0.078,-0.02963 0.0825,-0.02681 0.0826,-0.02117 0.0861,-0.01905 0.091,-0.01588 0.091,-0.01376 0.0963,-0.01023 0.0967,-0.0053 0.10195,-0.0032 v 0 l 0.0854,0.0032 0.0836,0.0053 0.0797,0.0081 0.0808,0.01058 0.0748,0.01058 0.0727,0.01587 0.0688,0.01376 0.0646,0.01587 0.0614,0.01587 0.054,0.01623 0.0508,0.01623 0.0427,0.01587 0.0374,0.01341 0.0325,0.01093 0.024,0.01058 0.0166,0.0056 -0.13441,0.741538"
       style="fill:none;stroke:#ffffff;stroke-width:0.07619999;stroke-linecap:butt;stroke-linejoin:miter;stroke-miterlimit:2.61310005;stroke-dasharray:none;stroke-opacity:1"
       id="path1160" />
    <path
       d="m 102.2256,102.44646 h -0.74118 l 0.0536,-0.29704 v -0.0272 l -0.0434,0.054 -0.0448,0.0476 -0.0455,0.043 -0.048,0.0377 -0.049,0.0349 -0.0483,0.0289 -0.0483,0.0243 -0.0508,0.0243 -0.0505,0.0187 -0.0508,0.0134 -0.0511,0.013 -0.0536,0.008 -0.0536,0.008 -0.0512,0.005 -0.0529,0.003 h -0.054 l -0.139,-0.0109 -0.12806,-0.0293 -0.11783,-0.0455 -0.10759,-0.0614 -0.0967,-0.078 -0.0854,-0.0907 -0.0751,-0.0995 -0.0639,-0.11219 -0.054,-0.121 -0.0427,-0.12523 -0.0296,-0.13124 -0.0212,-0.13688 -0.008,-0.13652 0.002,-0.13899 0.0138,-0.13688 0.0243,-0.13617 0.0399,-0.15875 0.0487,-0.14958 0.0554,-0.13653 0.0674,-0.12841 0.0695,-0.12065 0.0801,-0.10724 0.0833,-0.09596 0.0882,-0.08855 0.0938,-0.07796 0.0991,-0.06668 0.10195,-0.05891 0.10125,-0.04551 0.10689,-0.03775 0.10759,-0.02399 0.10725,-0.01588 0.10971,-0.0053 0.078,0.0021 0.0744,0.0085 0.0702,0.01341 0.0646,0.0187 0.0607,0.02152 0.054,0.02364 0.0536,0.02999 0.0483,0.02928 0.0427,0.03175 0.0399,0.03528 0.0346,0.03457 0.0325,0.03492 0.0268,0.03492 0.0247,0.03457 0.0208,0.03246 0.0162,0.0321 v 0 l 0.18768,-1.052336 h 0.72813 l -0.60572,3.502376 v 0 0"
       style="fill:#ffffff;fill-opacity:1;fill-rule:evenodd;stroke:none;stroke-width:0.03527778"
       id="path1162" />
    <path
       d="m 102.2256,102.44646 h -0.74118 l 0.0536,-0.29704 v -0.0272 l -0.0434,0.054 -0.0448,0.0476 -0.0455,0.043 -0.048,0.0377 -0.049,0.0349 -0.0483,0.0289 -0.0483,0.0243 -0.0508,0.0243 -0.0505,0.0187 -0.0508,0.0134 -0.0511,0.013 -0.0536,0.008 -0.0536,0.008 -0.0512,0.005 -0.0529,0.003 h -0.054 v 0 l -0.139,-0.0109 -0.12806,-0.0293 -0.11783,-0.0455 -0.10759,-0.0614 -0.0967,-0.078 -0.0854,-0.0907 -0.0751,-0.0995 -0.0639,-0.11219 -0.054,-0.121 -0.0427,-0.12523 -0.0296,-0.13124 -0.0212,-0.13688 -0.008,-0.13652 0.002,-0.13899 0.0138,-0.13688 0.0243,-0.13617 v 0 l 0.0399,-0.15875 0.0487,-0.14958 0.0554,-0.13653 0.0674,-0.12841 0.0695,-0.12065 0.0801,-0.10724 0.0833,-0.09596 0.0882,-0.08855 0.0938,-0.07796 0.0991,-0.06668 0.10195,-0.05891 0.10125,-0.04551 0.10689,-0.03775 0.10759,-0.02399 0.10725,-0.01588 0.10971,-0.0053 v 0 l 0.078,0.0021 0.0744,0.0085 0.0702,0.01341 0.0646,0.0187 0.0607,0.02152 0.054,0.02364 0.0536,0.02999 0.0483,0.02928 0.0427,0.03175 0.0399,0.03528 0.0346,0.03457 0.0325,0.03492 0.0268,0.03492 0.0247,0.03457 0.0208,0.03246 0.0162,0.0321 v 0 l 0.18768,-1.052336 h 0.72813 l -0.60572,3.502376"
       style="fill:none;stroke:#ffffff;stroke-width:0.07619999;stroke-linecap:butt;stroke-linejoin:miter;stroke-miterlimit:2.61310005;stroke-dasharray:none;stroke-opacity:1"
       id="path1164" />
    <path
       d="m 101.01311,101.7984 0.0751,-0.005 0.0695,-0.0159 0.0642,-0.0187 0.0617,-0.0296 0.0561,-0.0318 0.0536,-0.0409 0.0505,-0.0448 0.0459,-0.049 0.0402,-0.0533 0.037,-0.0589 0.0353,-0.0617 0.0296,-0.0639 0.0261,-0.0674 0.0222,-0.0695 0.0183,-0.0723 0.013,-0.072 0.013,-0.0748 0.009,-0.0776 v -0.073 l -0.004,-0.0744 -0.007,-0.0699 -0.0113,-0.067 -0.0183,-0.0642 -0.0215,-0.0617 -0.0268,-0.0529 -0.0318,-0.0512 -0.0353,-0.0434 -0.0399,-0.037 -0.0455,-0.0321 -0.0487,-0.0215 -0.0504,-0.0134 -0.0564,-0.006 -0.0723,0.006 -0.067,0.0106 -0.061,0.0215 -0.0621,0.0268 -0.054,0.0349 -0.0529,0.0427 -0.0455,0.0455 -0.0455,0.0511 -0.0406,0.0582 -0.0374,0.0621 -0.0349,0.0642 -0.0296,0.0695 -0.0261,0.0723 -0.0215,0.0727 -0.0212,0.0773 -0.0166,0.078 -0.0138,0.11783 0.006,0.12841 0.0187,0.13088 0.0346,0.12594 0.0536,0.11007 0.0695,0.0882 0.0882,0.0593 0.10759,0.0212 v 0 0"
       style="fill:#fbb231;fill-opacity:1;fill-rule:evenodd;stroke:none;stroke-width:0.03527778"
       id="path1166" />
    <path
       d="m 84.568369,101.85203 -0.1076,0.59443 h -0.67451 l 0.0187,-0.10972 0.0138,-0.0991 0.0102,-0.0748 0.0109,-0.0406 -0.037,0.043 -0.0434,0.043 -0.0504,0.0402 -0.0565,0.037 -0.0642,0.0378 -0.0674,0.0318 -0.0695,0.0325 -0.0716,0.0268 -0.078,0.024 -0.078,0.0191 -0.0773,0.0159 -0.0804,0.0106 -0.078,0.006 -0.0773,0.002 -0.0748,-0.008 -0.0734,-0.0106 -0.0935,-0.024 -0.0854,-0.0272 -0.0751,-0.0346 -0.067,-0.0402 -0.0586,-0.0427 -0.0536,-0.0483 -0.0427,-0.0511 -0.0381,-0.0533 -0.0314,-0.0561 -0.0272,-0.0593 -0.0212,-0.0586 -0.0159,-0.0589 -0.0109,-0.0617 -0.008,-0.0617 -0.005,-0.0589 v -0.0589 l 0.008,-0.10442 0.0166,-0.0991 0.0261,-0.0935 0.0353,-0.0914 0.0427,-0.0854 0.0483,-0.0776 0.0564,-0.0748 0.0639,-0.0674 0.067,-0.0614 0.0751,-0.0564 0.0769,-0.0508 0.0808,-0.043 0.0854,-0.0367 0.0889,-0.03 0.091,-0.024 0.0938,-0.0162 h 0.005 l 0.0131,-0.003 0.0187,-0.002 0.0296,-0.003 0.0325,-0.005 0.037,-0.003 0.0402,-0.005 0.0459,-0.005 0.0455,-0.005 0.0455,-0.006 0.0483,-0.003 0.0427,-0.005 0.0427,-0.002 0.0399,-0.003 0.0374,-0.002 h 0.0296 0.0621 l 0.0646,0.002 0.0586,0.003 h 0.0586 l 0.0483,0.002 0.0377,0.002 0.0265,0.003 h 0.008 l 0.006,-0.0187 0.0159,-0.048 0.0138,-0.0568 0.005,-0.0504 -0.0102,-0.0589 -0.024,-0.054 -0.0325,-0.048 -0.0427,-0.0402 -0.0512,-0.0342 -0.0557,-0.0243 -0.0646,-0.0162 -0.0699,-0.005 -0.0751,-0.003 -0.0804,-0.003 h -0.0829 l -0.0854,0.003 -0.0882,0.006 -0.0861,0.008 -0.0854,0.008 -0.0832,0.0109 -0.0801,0.0102 -0.078,0.0134 -0.0695,0.0134 -0.0642,0.0134 -0.0593,0.0166 -0.0473,0.0155 -0.0381,0.019 -0.0296,0.0159 0.19015,-0.64523 0.0593,-0.02399 0.0586,-0.02152 0.0649,-0.0187 0.0642,-0.01376 0.0639,-0.01341 0.0695,-0.01023 0.0698,-0.01094 0.0723,-0.0056 0.0751,-0.0049 0.0769,-0.0028 0.0808,-0.0028 h 0.0833 0.0857 0.0882 l 0.0935,0.0028 0.0938,0.0028 0.0751,0.0049 0.0804,0.01376 0.0833,0.0187 0.085,0.02434 0.0825,0.0321 0.0815,0.03739 0.0797,0.04551 0.0751,0.0508 0.0667,0.05927 0.0593,0.06385 0.054,0.07232 0.0399,0.08043 0.0268,0.0861 0.0159,0.0907 v 0.1016 l -0.0159,0.10724 -0.27058,1.41394 v 0 0"
       style="fill:#ffffff;fill-opacity:1;fill-rule:evenodd;stroke:none;stroke-width:0.03527778"
       id="path1168" />
    <path
       d="m 84.568369,101.85203 -0.1076,0.59443 h -0.67451 v 0 l 0.0187,-0.10972 0.0138,-0.0991 0.0102,-0.0748 0.0109,-0.0406 v 0 l -0.037,0.043 -0.0434,0.043 -0.0504,0.0402 -0.0565,0.037 -0.0642,0.0378 -0.0674,0.0318 -0.0695,0.0325 -0.0716,0.0268 -0.078,0.024 -0.078,0.0191 -0.0773,0.0159 -0.0804,0.0106 -0.078,0.006 -0.0773,0.002 -0.0748,-0.008 -0.0734,-0.0106 v 0 l -0.0935,-0.024 -0.0854,-0.0272 -0.0751,-0.0346 -0.067,-0.0402 -0.0586,-0.0427 -0.0536,-0.0483 -0.0427,-0.0511 -0.0381,-0.0533 -0.0314,-0.0561 -0.0272,-0.0593 -0.0212,-0.0586 -0.0159,-0.0589 -0.0109,-0.0617 -0.008,-0.0617 -0.005,-0.0589 v -0.0589 0 l 0.008,-0.10442 0.0166,-0.0991 0.0261,-0.0935 0.0353,-0.0914 0.0427,-0.0854 0.0483,-0.0776 0.0564,-0.0748 0.0639,-0.0674 0.067,-0.0614 0.0751,-0.0564 0.0769,-0.0508 0.0808,-0.043 0.0854,-0.0367 0.0889,-0.03 0.091,-0.024 0.0938,-0.0162 v 0 h 0.005 l 0.0131,-0.003 0.0187,-0.002 0.0296,-0.003 0.0325,-0.005 0.037,-0.003 0.0402,-0.005 0.0459,-0.005 0.0455,-0.005 0.0455,-0.006 0.0483,-0.003 0.0427,-0.005 0.0427,-0.002 0.0399,-0.003 0.0374,-0.002 h 0.0296 v 0 h 0.0621 l 0.0646,0.002 0.0586,0.003 h 0.0586 l 0.0483,0.002 0.0377,0.002 0.0265,0.003 h 0.008 v 0 l 0.006,-0.0187 0.0159,-0.048 0.0138,-0.0568 0.005,-0.0504 v 0 l -0.0102,-0.0589 -0.024,-0.054 -0.0325,-0.048 -0.0427,-0.0402 -0.0512,-0.0342 -0.0557,-0.0243 -0.0646,-0.0162 -0.0699,-0.005 v 0 l -0.0751,-0.003 -0.0804,-0.003 h -0.0829 l -0.0854,0.003 -0.0882,0.006 -0.0861,0.008 -0.0854,0.008 -0.0832,0.0109 -0.0801,0.0102 -0.078,0.0134 -0.0695,0.0134 -0.0642,0.0134 -0.0593,0.0166 -0.0473,0.0155 -0.0381,0.019 -0.0296,0.0159 0.19015,-0.64523 v 0 l 0.0593,-0.02399 0.0586,-0.02152 0.0649,-0.0187 0.0642,-0.01376 0.0639,-0.01341 0.0695,-0.01023 0.0698,-0.01094 0.0723,-0.0056 0.0751,-0.0049 0.0769,-0.0028 0.0808,-0.0028 h 0.0833 0.0857 0.0882 l 0.0935,0.0028 0.0938,0.0028 v 0 l 0.0751,0.0049 0.0804,0.01376 0.0833,0.0187 0.085,0.02434 0.0825,0.0321 0.0815,0.03739 0.0797,0.04551 0.0751,0.0508 0.0667,0.05927 0.0593,0.06385 0.054,0.07232 0.0399,0.08043 0.0268,0.0861 0.0159,0.0907 v 0.1016 l -0.0159,0.10724 -0.27058,1.41394"
       style="fill:none;stroke:#ffffff;stroke-width:0.07619999;stroke-linecap:butt;stroke-linejoin:miter;stroke-miterlimit:2.61310005;stroke-dasharray:none;stroke-opacity:1"
       id="path1170" />
    <path
       d="m 83.923489,101.15282 -0.003,-0.0131 -0.0113,-0.0134 -0.0155,-0.008 -0.0272,-0.005 -0.0296,-0.005 -0.0342,-0.003 h -0.0406 -0.0402 l -0.0434,0.003 -0.0455,0.005 -0.0427,0.005 -0.0427,0.006 -0.0399,0.005 -0.0381,0.008 -0.0314,0.008 -0.0296,0.008 -0.0187,0.005 -0.0215,0.008 -0.0296,0.0106 -0.0296,0.0134 -0.0342,0.0162 -0.0353,0.0187 -0.037,0.0187 -0.0353,0.0215 -0.0374,0.0265 -0.0342,0.0268 -0.0325,0.0325 -0.0296,0.0321 -0.0268,0.0346 -0.0187,0.0378 -0.0166,0.0427 -0.007,0.0427 -0.003,0.0914 0.0138,0.072 0.0261,0.054 0.0353,0.0399 0.0399,0.0268 0.0455,0.0159 0.0427,0.008 0.0434,0.003 0.0808,-0.003 0.0723,-0.008 0.0695,-0.0109 0.0607,-0.0159 0.0543,-0.0187 0.0504,-0.0236 0.0455,-0.0243 0.0406,-0.0296 0.0353,-0.0268 0.0314,-0.0321 0.0272,-0.0293 0.0212,-0.0321 0.0187,-0.0321 0.0159,-0.0321 0.0138,-0.0296 0.007,-0.0296 0.0222,-0.0773 0.0187,-0.0885 0.0155,-0.0857 0.0141,-0.0699 v 0 0"
       style="fill:#ec1c2e;fill-opacity:1;fill-rule:evenodd;stroke:none;stroke-width:0.03527778"
       id="path1172" />
    <path
       d="m 78.934159,102.44646 h -0.72814 l 0.60749,-3.515786 h 1.26717 l 0.11995,2.085976 0.87559,-2.085976 h 1.32292 l -0.62124,3.515786 h -0.72849 l 0.46038,-2.626786 h -0.0289 l -1.09009,2.626786 h -0.82197 l -0.005,-0.10972 -0.0194,-0.2921 -0.024,-0.41486 -0.0268,-0.47696 -0.0268,-0.47907 -0.0243,-0.42016 -0.0183,-0.305152 -0.006,-0.128764 h -0.007 -0.0159 -0.0166 v 0 l -0.4445,2.626786 v 0 0"
       style="fill:#ffffff;fill-opacity:1;fill-rule:evenodd;stroke:none;stroke-width:0.03527778"
       id="path1174" />
    <path
       d="m 78.934159,102.44646 h -0.72814 l 0.60749,-3.515786 h 1.26717 l 0.11995,2.085976 0.87559,-2.085976 h 1.32292 l -0.62124,3.515786 h -0.72849 l 0.46038,-2.626786 h -0.0289 l -1.09009,2.626786 h -0.82197 v 0 l -0.005,-0.10972 -0.0194,-0.2921 -0.024,-0.41486 -0.0268,-0.47696 -0.0268,-0.47907 -0.0243,-0.42016 -0.0183,-0.305152 -0.006,-0.128764 v 0 h -0.007 -0.0159 -0.0166 v 0 l -0.4445,2.626786"
       style="fill:none;stroke:#ffffff;stroke-width:0.07619999;stroke-linecap:butt;stroke-linejoin:miter;stroke-miterlimit:2.61310005;stroke-dasharray:none;stroke-opacity:1"
       id="path1176" />
    <path
       d="m 97.858569,101.85203 -0.10936,0.59443 h -0.6724 l 0.005,-0.10972 0.003,-0.0963 v -0.0723 l 0.006,-0.0321 -0.0353,0.0402 -0.0406,0.0399 -0.0483,0.0374 -0.0529,0.0381 -0.0564,0.0342 -0.0642,0.0321 -0.0667,0.0324 -0.067,0.0268 -0.073,0.0212 -0.0744,0.0212 -0.0751,0.0138 -0.0744,0.0106 -0.0783,0.006 -0.0744,0.002 -0.073,-0.008 -0.0716,-0.0106 -0.0967,-0.024 -0.0854,-0.0272 -0.0751,-0.0346 -0.0695,-0.0402 -0.0593,-0.0427 -0.0511,-0.0483 -0.0427,-0.0511 -0.0377,-0.0533 -0.0317,-0.0561 -0.024,-0.0593 -0.0215,-0.0586 -0.013,-0.0589 -0.0109,-0.0617 -0.009,-0.0617 -0.005,-0.0589 v -0.0589 l 0.005,-0.10442 0.0166,-0.0991 0.024,-0.0935 0.0346,-0.0914 0.0399,-0.0854 0.0519,-0.0776 0.0557,-0.0748 0.0614,-0.0674 0.0702,-0.0614 0.0716,-0.0564 0.078,-0.0508 0.0825,-0.043 0.0836,-0.0367 0.0882,-0.03 0.0882,-0.024 0.0907,-0.0162 h 0.006 l 0.0138,-0.003 0.0187,-0.002 0.0268,-0.003 0.0346,-0.005 0.0377,-0.003 0.0399,-0.005 0.043,-0.005 0.0452,-0.005 0.0483,-0.006 0.0455,-0.003 0.0462,-0.005 0.0427,-0.003 0.037,-0.003 0.0374,-0.002 h 0.0296 0.0642 l 0.0646,0.002 0.0614,0.003 h 0.0593 l 0.0505,0.003 0.0434,0.002 0.024,0.003 h 0.0109 l 0.005,-0.0187 0.008,-0.048 0.008,-0.0568 0.005,-0.0504 -0.0109,-0.0589 -0.0205,-0.054 -0.0353,-0.048 -0.0406,-0.0402 -0.0476,-0.0342 -0.0564,-0.0243 -0.0593,-0.0162 -0.0642,-0.005 -0.0751,-0.003 -0.0797,-0.002 h -0.0836 l -0.0854,0.002 -0.0889,0.006 -0.0854,0.008 -0.0854,0.008 -0.0833,0.0109 -0.0801,0.0102 -0.078,0.0134 -0.0688,0.0134 -0.0649,0.0134 -0.0593,0.0166 -0.048,0.0155 -0.0374,0.0191 -0.0296,0.0159 0.18803,-0.64523 0.0586,-0.02399 0.0614,-0.02152 0.0614,-0.0187 0.0649,-0.01376 0.0667,-0.01341 0.067,-0.01023 0.0695,-0.01093 0.0723,-0.0056 0.0751,-0.0049 0.078,-0.0028 0.0769,-0.0028 h 0.0829 0.0833 0.0861 l 0.091,0.0028 0.091,0.0028 0.0751,0.0049 0.0804,0.01376 0.0829,0.0187 0.0861,0.02434 0.0825,0.0321 0.0825,0.03739 0.0808,0.04551 0.0751,0.0508 0.0667,0.05927 0.0621,0.06385 0.0529,0.07232 0.0402,0.08043 0.0296,0.0861 0.0183,0.0907 v 0.1016 l -0.013,0.10724 -0.28117,1.41394 v 0 0"
       style="fill:#ffffff;fill-opacity:1;fill-rule:evenodd;stroke:none;stroke-width:0.03527778"
       id="path1178" />
    <path
       d="m 97.749209,102.46515 0.0159,-0.0159 0.10936,-0.59478 -0.0321,-0.005 -0.10972,0.59478 0.0166,-0.0162 v 0.0374 l 0.013,-0.003 0.003,-0.013 -0.0159,0.0159 v 0 0"
       style="fill:#ffffff;fill-opacity:1;fill-rule:evenodd;stroke:none;stroke-width:0.03527778"
       id="path1180" />
    <path
       d="m 97.060229,102.44646 0.0166,0.0187 h 0.6724 v -0.0374 h -0.6724 l 0.0159,0.0187 h -0.0325 l -0.002,0.0187 h 0.0187 l -0.0166,-0.0187 v 0 0"
       style="fill:#ffffff;fill-opacity:1;fill-rule:evenodd;stroke:none;stroke-width:0.03527778"
       id="path1182" />
    <path
       d="m 97.103619,102.14624 -0.024,-0.0212 -0.0113,0.043 -0.003,0.0723 v 0.0963 l -0.005,0.10972 h 0.0325 l 0.005,-0.10972 0.006,-0.0963 -0.004,-0.0723 v -0.0219 l -0.0233,-0.0212 0.0268,0.0212 v 0 0"
       style="fill:#ffffff;fill-opacity:1;fill-rule:evenodd;stroke:none;stroke-width:0.03527778"
       id="path1184" />
    <path
       d="m 96.061869,102.4895 v 0 l 0.0744,0.0106 0.073,0.008 0.0744,-0.002 0.0783,-0.006 0.0773,-0.0106 0.0751,-0.0138 0.0744,-0.0208 0.0751,-0.0219 0.0667,-0.0268 0.0695,-0.0318 0.0642,-0.0321 0.0564,-0.0378 0.0564,-0.0378 0.0483,-0.037 0.0427,-0.0434 0.0353,-0.0402 -0.0268,-0.0212 -0.0353,0.0402 -0.037,0.0374 -0.0483,0.0378 -0.0512,0.0374 -0.0564,0.0321 -0.0639,0.0325 -0.0642,0.0321 -0.067,0.0265 -0.0702,0.0212 -0.0744,0.0219 -0.0751,0.0134 -0.0716,0.0102 -0.0783,0.006 -0.0744,0.003 -0.073,-0.008 -0.0699,-0.0102 v 0 l -0.005,0.0321 v 0 0"
       style="fill:#ffffff;fill-opacity:1;fill-rule:evenodd;stroke:none;stroke-width:0.03527778"
       id="path1186" />
    <path
       d="m 95.413459,101.67775 v 0 l 0.003,0.0589 0.005,0.0589 0.008,0.0646 0.0109,0.0614 0.0138,0.0589 0.0215,0.0617 0.024,0.0614 0.0346,0.0564 0.0377,0.0561 0.0427,0.0508 0.054,0.0508 0.061,0.043 0.0699,0.043 0.0776,0.0346 0.0875,0.0268 0.0974,0.0243 0.005,-0.0321 -0.0956,-0.0243 -0.0825,-0.0268 -0.073,-0.0346 -0.0699,-0.0378 -0.0564,-0.0423 -0.0483,-0.0462 -0.0427,-0.0508 -0.037,-0.0508 -0.0289,-0.0561 -0.0251,-0.0564 -0.0212,-0.0557 -0.013,-0.0593 -0.0109,-0.0617 -0.008,-0.0589 -0.006,-0.0589 0.003,-0.0589 v 0 h -0.0378 v 0 0"
       style="fill:#ffffff;fill-opacity:1;fill-rule:evenodd;stroke:none;stroke-width:0.03527778"
       id="path1188" />
    <path
       d="m 96.374429,100.64941 v 0 l -0.0928,0.0162 -0.091,0.0243 -0.0882,0.0293 -0.0861,0.0374 -0.0832,0.0427 -0.0808,0.054 -0.0716,0.0564 -0.0695,0.0639 -0.0649,0.067 -0.0557,0.0748 -0.054,0.0804 -0.0399,0.0885 -0.0349,0.091 -0.0243,0.0963 -0.0159,0.1016 -0.008,0.10442 h 0.0377 l 0.003,-0.10442 0.0159,-0.0963 0.024,-0.091 0.0346,-0.091 0.0406,-0.0833 0.0483,-0.0748 0.0564,-0.0751 0.0586,-0.0667 0.0688,-0.0589 0.073,-0.0564 0.0744,-0.048 0.0836,-0.043 0.0797,-0.037 0.0889,-0.0296 0.0854,-0.0243 0.0882,-0.0159 v 0 -0.0325 0 0"
       style="fill:#ffffff;fill-opacity:1;fill-rule:evenodd;stroke:none;stroke-width:0.03527778"
       id="path1190" />
    <path
       d="m 96.926529,100.59331 v 0 h -0.0296 l -0.0374,0.006 -0.037,0.003 -0.0427,0.002 -0.0462,0.005 -0.0455,0.003 -0.0483,0.005 -0.0451,0.005 -0.043,0.006 -0.0399,0.006 -0.0377,0.002 -0.0346,0.006 -0.0268,0.003 -0.0215,0.003 -0.0109,0.002 h -0.006 v 0.0325 h 0.006 l 0.0166,-0.003 0.0159,-0.002 0.0268,-0.003 0.0346,-0.005 0.0377,-0.003 0.0399,-0.005 0.043,-0.006 0.0452,-0.005 0.0483,-0.005 0.0455,-0.002 0.0462,-0.006 0.0427,-0.002 0.037,-0.003 h 0.0374 0.0296 v 0 -0.0374 0 0"
       style="fill:#ffffff;fill-opacity:1;fill-rule:evenodd;stroke:none;stroke-width:0.03527778"
       id="path1192" />
    <path
       d="m 97.288119,100.6226 0.0166,-0.0134 h -0.0109 l -0.024,-0.002 -0.0434,-0.002 -0.0504,-0.005 h -0.0593 -0.0614 l -0.0646,-0.006 h -0.0642 v 0.0374 h 0.0642 0.0646 l 0.0614,0.005 h 0.0593 0.0504 l 0.0434,0.003 0.024,0.003 h 0.0109 l 0.0152,-0.0134 -0.0152,0.0134 0.013,0.003 0.002,-0.0159 -0.0318,-0.006 v 0 0"
       style="fill:#ffffff;fill-opacity:1;fill-rule:evenodd;stroke:none;stroke-width:0.03527778"
       id="path1194" />
    <path
       d="m 97.314929,100.4515 h -0.002 l -0.003,0.0504 -0.008,0.054 -0.007,0.0483 -0.006,0.0183 0.0317,0.006 0.006,-0.0191 0.008,-0.0483 0.008,-0.0589 0.008,-0.0505 h -0.004 -0.0317 v 0 0"
       style="fill:#ffffff;fill-opacity:1;fill-rule:evenodd;stroke:none;stroke-width:0.03527778"
       id="path1196" />
    <path
       d="m 96.996019,100.18621 v 0.003 l 0.0621,0.003 0.0557,0.0162 0.054,0.0236 0.0452,0.0325 0.0374,0.0374 0.0325,0.0455 0.0219,0.048 0.0102,0.0564 h 0.0318 l -0.0102,-0.0614 -0.0215,-0.0593 -0.0377,-0.0504 -0.0427,-0.0434 -0.0512,-0.037 -0.0593,-0.0243 -0.061,-0.0159 -0.067,-0.008 v 0.003 0.0321 0 0"
       style="fill:#ffffff;fill-opacity:1;fill-rule:evenodd;stroke:none;stroke-width:0.03527778"
       id="path1198" />
    <path
       d="m 95.847379,100.31497 0.0268,0.0159 0.0272,-0.0134 0.0342,-0.0187 0.0455,-0.0162 0.0593,-0.0155 0.0642,-0.0134 0.0695,-0.0138 0.078,-0.0134 0.0773,-0.0102 0.0833,-0.0113 0.0854,-0.008 0.0854,-0.008 0.0889,-0.005 h 0.0854 0.0836 0.0797 l 0.0751,0.002 v -0.0321 l -0.0751,-0.002 -0.0797,-0.006 h -0.0836 l -0.0854,0.006 -0.0889,0.005 -0.0854,0.008 -0.0854,0.008 -0.0833,0.0106 -0.0829,0.0102 -0.078,0.0141 -0.0695,0.0134 -0.0639,0.0134 -0.0586,0.0155 -0.0512,0.0166 -0.0406,0.0183 -0.0325,0.0187 0.0275,0.0162 -0.0325,-0.005 v 0 0"
       style="fill:#ffffff;fill-opacity:1;fill-rule:evenodd;stroke:none;stroke-width:0.03527778"
       id="path1200" />
    <path
       d="m 96.045989,99.655985 -0.0109,0.01376 -0.18767,0.645235 0.0325,0.005 0.18662,-0.645587 -0.0102,0.01376 -0.0102,-0.03246 -0.008,0.0028 -0.002,0.01093 0.0109,-0.01376 v 0 0"
       style="fill:#ffffff;fill-opacity:1;fill-rule:evenodd;stroke:none;stroke-width:0.03527778"
       id="path1202" />
    <path
       d="m 97.237319,99.533218 v 0 l -0.091,-0.0053 -0.091,-0.0032 h -0.0861 -0.0833 -0.0829 l -0.0769,0.0056 -0.078,0.0028 -0.0751,0.0056 -0.0723,0.0046 -0.0723,0.01058 -0.0663,0.01093 -0.0674,0.01376 -0.0649,0.01341 -0.0639,0.0187 -0.0614,0.02117 -0.0586,0.02399 0.0102,0.03246 0.0593,-0.02434 0.0614,-0.02117 0.0586,-0.01905 0.0649,-0.01305 0.0667,-0.01376 0.0667,-0.01058 0.067,-0.01058 0.0723,-0.0053 0.0751,-0.0056 0.078,-0.0025 h 0.0769 0.0829 0.0833 0.0861 l 0.091,0.0025 h 0.091 v 0 -0.03175 0 0"
       style="fill:#ffffff;fill-opacity:1;fill-rule:evenodd;stroke:none;stroke-width:0.03527778"
       id="path1204" />
    <path
       d="m 98.155609,100.44091 v 0 l 0.0138,-0.11006 v -0.1016 l -0.0183,-0.0942 -0.0296,-0.0882 -0.0427,-0.08255 -0.054,-0.07514 -0.0646,-0.06668 -0.067,-0.05927 -0.0773,-0.05115 -0.0804,-0.04798 -0.0854,-0.0374 -0.0836,-0.03246 -0.0882,-0.02363 -0.0833,-0.0187 -0.0825,-0.01305 -0.0751,-0.0056 v 0.03175 l 0.0751,0.0056 0.0769,0.01341 0.0836,0.0187 0.0833,0.02399 0.0825,0.0321 0.0801,0.03775 0.0808,0.04269 0.0723,0.0508 0.0667,0.05856 0.0586,0.06209 0.0536,0.06915 0.0381,0.07832 0.0296,0.0829 0.0187,0.0882 v 0.1016 l -0.0141,0.10477 v 0 l 0.0325,0.005 v 0 0"
       style="fill:#ffffff;fill-opacity:1;fill-rule:evenodd;stroke:none;stroke-width:0.03527778"
       id="path1206" />
    <path
       d="m 97.874439,101.8545 v 0 l 0.28117,-1.41359 -0.0325,-0.005 -0.28082,1.41358 v 0 l 0.0321,0.005 v 0 0"
       style="fill:#ffffff;fill-opacity:1;fill-rule:evenodd;stroke:none;stroke-width:0.03527778"
       id="path1208" />
    <path
       d="m 97.210509,101.15282 -0.006,-0.0159 -0.0102,-0.013 -0.0187,-0.009 -0.0275,-0.008 -0.0289,-0.003 -0.0346,-0.003 h -0.0406 l -0.0399,0.003 -0.0434,0.005 -0.0423,0.005 -0.0427,0.006 -0.0406,0.005 -0.0399,0.008 -0.0353,0.005 -0.0342,0.008 -0.0272,0.005 -0.0183,0.003 -0.0215,0.008 -0.0268,0.008 -0.0296,0.0106 -0.0353,0.0159 -0.0321,0.0166 -0.0374,0.0187 -0.0346,0.0236 -0.0349,0.0243 -0.0346,0.0293 -0.0296,0.0293 -0.0296,0.0353 -0.0233,0.0374 -0.0194,0.0399 -0.0159,0.043 -0.008,0.0455 -0.003,0.0914 0.013,0.072 0.0222,0.054 0.0314,0.0399 0.0402,0.0268 0.0462,0.0159 0.0452,0.008 0.0455,0.003 0.0801,-0.003 0.0751,-0.008 0.0695,-0.0134 0.0621,-0.0183 0.0586,-0.0215 0.0508,-0.024 0.0483,-0.0272 0.0427,-0.0321 0.0381,-0.0293 0.0314,-0.0346 0.0296,-0.0325 0.0243,-0.0349 0.0187,-0.0321 0.013,-0.0321 0.0109,-0.0321 0.008,-0.0293 0.0106,-0.0751 0.0138,-0.0776 0.0102,-0.0748 0.006,-0.0674 v 0 0"
       style="fill:#fbb231;fill-opacity:1;fill-rule:evenodd;stroke:none;stroke-width:0.03527778"
       id="path1210" />
    <path
       d="m 102.72655,102.07992 0.006,-0.0621 0.0212,-0.0723 0.0381,-0.0642 0.0455,-0.0561 0.0557,-0.0451 0.0642,-0.0325 0.0695,-0.0219 0.0751,-0.008 0.0759,0.008 0.0688,0.0219 0.0649,0.0325 0.0557,0.0451 0.0455,0.0561 0.037,0.0642 0.0222,0.0723 0.005,0.0621 h -0.0804 l -0.003,-0.0487 -0.0159,-0.0589 -0.0268,-0.0533 -0.0353,-0.0459 -0.0427,-0.0374 -0.0501,-0.0265 -0.0593,-0.019 -0.0621,-0.005 -0.0614,0.005 -0.0586,0.019 -0.0519,0.0265 -0.0427,0.0374 -0.0342,0.0459 -0.0268,0.0533 -0.0159,0.0589 -0.006,0.0487 h -0.078 v 0 0"
       style="fill:#ffffff;fill-opacity:1;fill-rule:evenodd;stroke:none;stroke-width:0.03527778"
       id="path1212" />
    <path
       d="m 102.96785,102.07992 v -0.16087 h 0.14746 l 0.0325,0.002 0.0296,0.005 0.0204,0.008 0.0194,0.0106 0.013,0.0162 0.0102,0.0162 0.006,0.0183 0.003,0.019 -0.003,0.024 -0.006,0.0187 -0.007,0.0162 -0.006,0.006 h -0.11219 l 0.0102,-0.003 0.0187,-0.002 0.0166,-0.005 0.0138,-0.005 0.0102,-0.008 0.006,-0.008 0.005,-0.0127 v -0.0191 l -0.003,-0.0134 -0.005,-0.0109 -0.009,-0.005 -0.008,-0.006 -0.013,-0.002 -0.0138,-0.003 h -0.013 -0.0159 -0.0808 v 0.10443 h -0.0667 v 0 0"
       style="fill:#ffffff;fill-opacity:1;fill-rule:evenodd;stroke:none;stroke-width:0.03527778"
       id="path1214" />
    <path
       d="m 102.72655,102.07992 -0.002,0.0159 0.008,0.0776 0.0212,0.072 0.0381,0.0646 0.0455,0.0536 0.0557,0.0452 0.0642,0.0353 0.0695,0.0212 0.0751,0.008 0.0759,-0.008 0.0688,-0.0212 0.0649,-0.0353 0.0557,-0.0452 0.0455,-0.0536 0.037,-0.0646 0.0222,-0.072 0.008,-0.0776 -0.003,-0.0159 h -0.0804 l 0.003,0.0159 -0.006,0.0642 -0.0159,0.0589 -0.0268,0.0512 -0.0353,0.0448 -0.0427,0.0381 -0.0501,0.0289 -0.0593,0.0191 -0.0621,0.005 -0.0614,-0.005 -0.0586,-0.0191 -0.0519,-0.0289 -0.0427,-0.0381 -0.0342,-0.0448 -0.0268,-0.0512 -0.0159,-0.0589 -0.006,-0.0642 v -0.0159 h -0.078 v 0 0"
       style="fill:#ffffff;fill-opacity:1;fill-rule:evenodd;stroke:none;stroke-width:0.03527778"
       id="path1216" />
    <path
       d="m 102.96785,102.07992 v 0.16334 h 0.0667 v -0.13406 h 0.067 l 0.0804,0.13406 h 0.0533 l -0.0801,-0.13406 h 0.0194 l 0.018,-0.006 0.0166,-0.005 0.0138,-0.0106 0.005,-0.008 h -0.11219 l -0.0138,0.002 h -0.067 v -0.002 h -0.0667 v 0 0"
       style="fill:#ffffff;fill-opacity:1;fill-rule:evenodd;stroke:none;stroke-width:0.03527778"
       id="path1218" />
    <path
       d="m 103.10155,102.40624 v 0 l 0.0621,-0.005 0.0593,-0.0191 0.0501,-0.0289 0.0427,-0.0381 0.0353,-0.0448 0.0268,-0.0512 0.0159,-0.0589 0.006,-0.0642 v 0 l -0.006,-0.0646 -0.0159,-0.0589 -0.0268,-0.0533 -0.0353,-0.0459 -0.0427,-0.0374 -0.0501,-0.0265 -0.0593,-0.0191 -0.0621,-0.005 v 0 l -0.0614,0.005 -0.0586,0.0191 -0.0519,0.0265 -0.0427,0.0374 -0.0342,0.0459 -0.0268,0.0533 -0.0159,0.0589 -0.006,0.0646 v 0 l 0.006,0.0642 0.0159,0.0589 0.0268,0.0512 0.0342,0.0448 0.0427,0.0381 0.0519,0.0289 0.0586,0.0191 0.0614,0.005 m 0,-0.32385 v 0 l 0.024,-0.006 0.0187,-0.002 0.0166,-0.005 0.0138,-0.005 0.0102,-0.008 0.006,-0.008 0.005,-0.0127 v -0.0191 0 l -0.003,-0.0134 -0.005,-0.0109 -0.009,-0.005 -0.008,-0.006 -0.013,-0.003 -0.0138,-0.002 h -0.013 -0.0159 -0.0808 v 0.10689 h 0.067 m -0.067,0.16087 h -0.0667 v -0.3242 h 0.14746 v 0 l 0.0325,0.002 0.0296,0.005 0.0205,0.008 0.0194,0.0106 0.013,0.0162 0.0102,0.0162 0.006,0.0183 0.003,0.019 v 0 l -0.003,0.024 -0.006,0.0187 -0.007,0.0162 -0.0102,0.0134 -0.0138,0.0106 -0.0166,0.005 -0.018,0.006 h -0.0194 l 0.0801,0.13405 h -0.0533 l -0.0804,-0.13405 h -0.067 v 0.13405 m -0.31009,-0.14746 v 0 l 0.008,-0.078 0.0212,-0.0723 0.0381,-0.0642 0.0455,-0.0561 0.0557,-0.0451 0.0642,-0.0325 0.0695,-0.0219 0.0751,-0.008 v 0 l 0.0759,0.008 0.0688,0.0219 0.0649,0.0325 0.0557,0.0451 0.0455,0.0561 0.037,0.0642 0.0222,0.0723 0.008,0.078 v 0 l -0.008,0.0776 -0.0222,0.072 -0.037,0.0646 -0.0455,0.0536 -0.0557,0.0452 -0.0649,0.0353 -0.0688,0.0212 -0.0759,0.008 v 0 l -0.0751,-0.008 -0.0695,-0.0212 -0.0642,-0.0353 -0.0557,-0.0452 -0.0455,-0.0536 -0.0381,-0.0646 -0.0212,-0.072 -0.008,-0.0776"
       style="fill:none;stroke:#ffffff;stroke-width:0.07619999;stroke-linecap:butt;stroke-linejoin:miter;stroke-miterlimit:2.61310005;stroke-dasharray:none;stroke-opacity:1"
       id="path1220" />
    <path
       d="m 98.059299,102.44646 h 0.75494 v 0 l 0.27093,-1.52365 0.0102,-0.0586 0.0159,-0.0593 0.0166,-0.0589 0.0215,-0.0589 0.0268,-0.0589 0.0317,-0.0564 0.0349,-0.0533 0.0434,-0.0512 0.0476,-0.0452 0.0536,-0.043 0.0614,-0.0406 0.0698,-0.0321 0.0776,-0.0261 0.0854,-0.0215 0.0938,-0.0162 0.10478,-0.006 h 0.0377 0.0208 0.008 v 0 l 0.120651,-0.687917 -0.0751,0.0049 -0.0723,0.0085 -0.0667,0.01341 -0.0642,0.01834 -0.0593,0.02152 -0.0557,0.02716 -0.0536,0.02928 -0.0505,0.0321 -0.049,0.03775 -0.0455,0.0374 -0.0427,0.04304 -0.0427,0.04233 -0.0406,0.04586 -0.0392,0.05045 -0.0409,0.04833 -0.0377,0.0536 0.0808,-0.484355 h -0.75248 l -0.50097,2.867725 v 0 0 0"
       style="fill:#ffffff;fill-opacity:1;fill-rule:evenodd;stroke:none;stroke-width:0.03527778"
       id="path1222" />
    <path
       d="m 98.059299,102.44646 h 0.75494 v 0 l 0.27093,-1.52365 v 0 l 0.0102,-0.0586 0.0159,-0.0593 0.0166,-0.0589 0.0215,-0.0589 0.0268,-0.0589 0.0317,-0.0564 0.0349,-0.0533 0.0434,-0.0512 0.0476,-0.0452 0.0536,-0.043 0.0614,-0.0406 0.0698,-0.0321 0.0776,-0.0261 0.0854,-0.0215 0.0938,-0.0162 0.10478,-0.006 v 0 h 0.0377 0.0208 0.008 v 0 l 0.120651,-0.687917 v 0 l -0.0751,0.0049 -0.0723,0.0085 -0.0667,0.01341 -0.0642,0.01834 -0.0593,0.02152 -0.0557,0.02716 -0.0536,0.02928 -0.0505,0.0321 -0.049,0.03775 -0.0455,0.0374 -0.0427,0.04304 -0.0427,0.04233 -0.0406,0.04586 -0.0392,0.05045 -0.0409,0.04833 -0.0377,0.0536 0.0808,-0.484355 h -0.75248 l -0.50097,2.867725 v 0"
       style="fill:none;stroke:#ffffff;stroke-width:0.07619999;stroke-linecap:butt;stroke-linejoin:miter;stroke-miterlimit:2.61310005;stroke-dasharray:none;stroke-opacity:1"
       id="path1224" />
    <path
       d="m 90.968459,102.44646 h 0.76835 l 0.25683,-1.52365 0.0113,-0.0586 0.013,-0.0564 0.0138,-0.0561 0.0187,-0.054 0.0212,-0.0536 0.0268,-0.0508 0.0317,-0.048 0.0381,-0.0455 0.0427,-0.0409 0.048,-0.0395 0.0586,-0.0325 0.0649,-0.0293 0.0751,-0.0243 0.0825,-0.0208 0.091,-0.0138 0.10477,-0.008 h 0.007 l 0.0113,0.003 0.013,0.003 h 0.0138 l 0.0138,0.002 0.0102,0.003 0.008,0.002 h 0.003 l 0.003,-0.0106 0.008,-0.0321 0.0102,-0.048 0.0138,-0.0593 0.0187,-0.0695 0.0187,-0.0751 0.0247,-0.07479 0.0233,-0.0755 0.0222,-0.05045 0.0268,-0.05115 0.0261,-0.05045 0.0268,-0.04551 0.0243,-0.04022 0.0187,-0.0321 0.0131,-0.0187 0.005,-0.0081 h -0.003 l -0.0102,-0.0028 -0.0138,-0.0028 -0.0187,-0.0028 h -0.0183 l -0.0215,-0.0021 -0.0187,-0.0028 h -0.0183 l -0.0836,0.0049 -0.0744,0.0085 -0.0702,0.01341 -0.0642,0.01623 -0.0617,0.02117 -0.0561,0.02716 -0.0508,0.02611 -0.0483,0.0321 -0.0455,0.03528 -0.0427,0.04022 -0.0399,0.04022 -0.0406,0.0448 -0.0402,0.04621 -0.0377,0.05115 -0.0399,0.05292 -0.0402,0.0536 0.0967,-0.484363 h -0.76835 l -0.50094,2.867733 v 0 0 0"
       style="fill:#ffffff;fill-opacity:1;fill-rule:evenodd;stroke:none;stroke-width:0.03527778"
       id="path1226" />
    <path
       d="m 90.968459,102.44646 h 0.76835 l 0.25683,-1.52365 v 0 l 0.0113,-0.0586 0.013,-0.0564 0.0138,-0.0561 0.0187,-0.054 0.0212,-0.0536 0.0268,-0.0508 0.0317,-0.048 0.0381,-0.0455 0.0427,-0.0409 0.048,-0.0395 0.0586,-0.0325 0.0649,-0.0293 0.0751,-0.0243 0.0825,-0.0208 0.091,-0.0138 0.10477,-0.008 v 0 h 0.007 l 0.0113,0.003 0.013,0.003 h 0.0138 l 0.0138,0.002 0.0102,0.003 0.008,0.002 h 0.003 v 0 l 0.003,-0.0106 0.008,-0.0321 0.0102,-0.048 0.0138,-0.0593 0.0187,-0.0695 0.0187,-0.0751 0.0247,-0.07479 0.0233,-0.0755 v 0 l 0.0222,-0.05045 0.0268,-0.05115 0.0261,-0.05045 0.0268,-0.04551 0.0243,-0.04022 0.0187,-0.0321 0.0131,-0.0187 0.005,-0.0081 v 0 h -0.003 l -0.0102,-0.0028 -0.0138,-0.0028 -0.0187,-0.0028 h -0.0183 l -0.0215,-0.0021 -0.0187,-0.0028 h -0.0183 v 0 l -0.0836,0.0049 -0.0744,0.0085 -0.0702,0.01341 -0.0642,0.01623 -0.0617,0.02117 -0.0561,0.02716 -0.0508,0.02611 -0.0483,0.0321 -0.0455,0.03528 -0.0427,0.04022 -0.0399,0.04022 -0.0406,0.0448 -0.0402,0.04621 -0.0377,0.05115 -0.0399,0.05292 -0.0402,0.0536 0.0967,-0.484363 h -0.76835 l -0.50094,2.867733 v 0"
       style="fill:none;stroke:#ffffff;stroke-width:0.07619999;stroke-linecap:butt;stroke-linejoin:miter;stroke-miterlimit:2.61310005;stroke-dasharray:none;stroke-opacity:1"
       id="path1228" />
    <path
       d="m 102.73219,105.26374 v -0.0109 l 0.0212,-0.0695 0.0381,-0.0617 0.0455,-0.0533 0.0557,-0.043 0.0642,-0.0325 0.0695,-0.0183 0.0751,-0.008 0.0759,0.008 0.0688,0.0183 0.0649,0.0325 0.0557,0.043 0.0455,0.0533 0.037,0.0617 0.0222,0.0695 v 0.0109 h -0.078 l -0.0159,-0.0561 -0.0268,-0.0512 -0.0353,-0.0459 -0.0427,-0.037 -0.0501,-0.0296 -0.0593,-0.0187 -0.0621,-0.005 -0.0614,0.005 -0.0586,0.0187 -0.0519,0.0296 -0.0427,0.037 -0.0342,0.0459 -0.0268,0.0512 -0.0159,0.0561 h -0.078 v 0 0"
       style="fill:#fbb231;fill-opacity:1;fill-rule:evenodd;stroke:none;stroke-width:0.03527778"
       id="path1230" />
    <path
       d="m 102.96785,105.26374 v -0.0935 h 0.17991 l 0.0296,0.005 0.0204,0.005 0.0194,0.0109 0.013,0.0138 0.0102,0.0159 0.006,0.0187 0.003,0.0243 h -0.0533 v -0.0138 l -0.003,-0.0134 -0.005,-0.0106 -0.009,-0.005 -0.008,-0.005 -0.013,-0.003 -0.0138,-0.002 h -0.013 -0.0159 -0.0808 v 0.0536 h -0.0667 v 0 0"
       style="fill:#fbb231;fill-opacity:1;fill-rule:evenodd;stroke:none;stroke-width:0.03527778"
       id="path1232" />
    <path
       d="m 102.72443,105.3223 0.008,-0.0586 h 0.078 v 0.002 l -0.006,0.0564 h -0.0801 v 0 0"
       style="fill:#fbb231;fill-opacity:1;fill-rule:evenodd;stroke:none;stroke-width:0.03527778"
       id="path1234" />
    <path
       d="m 102.96785,105.3223 v -0.0586 h 0.0667 v 0.0533 h 0.067 l 0.024,-0.005 0.0187,-0.003 0.0166,-0.006 0.0138,-0.005 0.0102,-0.008 0.006,-0.008 0.005,-0.0127 v -0.006 h 0.0533 v 0 l -0.003,0.0183 -0.006,0.0162 -0.007,0.0138 -0.0102,0.0102 h -0.25506 v 0 0"
       style="fill:#fbb231;fill-opacity:1;fill-rule:evenodd;stroke:none;stroke-width:0.03527778"
       id="path1236" />
    <path
       d="m 103.39929,105.3223 -0.006,-0.0564 v -0.002 h 0.078 l 0.008,0.0586 h -0.0804 v 0 0"
       style="fill:#fbb231;fill-opacity:1;fill-rule:evenodd;stroke:none;stroke-width:0.03527778"
       id="path1238" />
    <path
       d="m 102.72443,105.3223 v 0.008 l 0.008,0.0776 0.0212,0.0723 0.0381,0.0642 0.0455,0.0564 0.0557,0.0459 0.0642,0.0314 0.0695,0.0219 0.0751,0.008 0.0759,-0.008 0.0688,-0.0219 0.0649,-0.0314 0.0557,-0.0459 0.0455,-0.0564 0.037,-0.0642 0.0222,-0.0723 0.008,-0.0776 v -0.008 h -0.0804 v 0.008 l -0.006,0.0646 -0.0159,0.0589 -0.0268,0.0505 -0.0353,0.0452 -0.0427,0.0384 -0.0501,0.0293 -0.0593,0.0187 -0.0621,0.005 -0.0614,-0.005 -0.0586,-0.0187 -0.0519,-0.0293 -0.0427,-0.0384 -0.0342,-0.0452 -0.0268,-0.0505 -0.0159,-0.0589 -0.006,-0.0646 v -0.008 h -0.0801 v 0 0"
       style="fill:#fbb231;fill-opacity:1;fill-rule:evenodd;stroke:none;stroke-width:0.03527778"
       id="path1240" />
    <path
       d="m 102.96785,105.3223 v 0.15558 h 0.0667 v -0.13406 h 0.067 l 0.0804,0.13406 h 0.0533 l -0.0801,-0.13406 h 0.0194 l 0.018,-0.005 0.0166,-0.005 0.0138,-0.0109 v 0 h -0.25506 v 0 0"
       style="fill:#fbb231;fill-opacity:1;fill-rule:evenodd;stroke:none;stroke-width:0.03527778"
       id="path1242" />
    <path
       d="m 90.325699,100.67869 h -0.97825 l 3.4e-4,-0.002 -0.001,-3.5e-4 0.007,-0.0374 0.0109,-0.0561 0.0159,-0.0536 0.0187,-0.0533 0.024,-0.048 0.025,-0.0459 0.0289,-0.0434 0.0325,-0.0399 0.0349,-0.0374 0.0339,-0.0321 0.0406,-0.0293 0.0399,-0.0243 0.0462,-0.0215 0.0455,-0.0155 0.0455,-0.0113 0.0476,-0.008 0.0515,-0.003 0.0476,0.005 0.0455,0.008 0.0434,0.0109 0.042,0.0155 0.0406,0.0219 0.0402,0.024 0.0349,0.0268 0.0317,0.0321 0.0268,0.0374 0.0268,0.0399 0.0187,0.0459 0.0194,0.0512 0.0102,0.0533 0.006,0.0589 0.003,0.0646 z m 0.72567,-0.24624 -0.0215,-0.16016 -0.037,-0.14217 -0.054,-0.12277 -0.0667,-0.107596 -0.0808,-0.09102 -0.0882,-0.07479 -0.0963,-0.06421 -0.10407,-0.04833 -0.1076,-0.04057 -0.11007,-0.02681 -0.10901,-0.01834 -0.11006,-0.01094 -0.10407,-0.0028 -0.21731,0.01129 -0.19262,0.03175 -0.17462,0.04833 -0.15487,0.06703 -0.13441,0.08043 -0.11783,0.09102 -0.10407,0.1016 -0.0861,0.107246 -0.0744,0.11253 -0.0621,0.11748 -0.0473,0.11571 -0.0409,0.1143 -0.0296,0.11324 -0.0212,0.10372 -0.0159,0.0995 -0.0109,0.0857 -0.013,0.21943 0.007,0.1979 0.0296,0.17957 0.0455,0.15804 0.0649,0.14182 0.0769,0.12347 0.091,0.10972 0.10478,0.091 0.11218,0.078 0.12065,0.0663 0.12629,0.0515 0.13088,0.0399 0.13441,0.0325 0.13335,0.0187 0.1337,0.0134 0.13159,0.003 h 0.0882 l 0.0829,-0.003 h 0.0723 l 0.0695,-0.003 0.0621,-0.005 0.0557,-0.005 0.0536,-0.005 0.0483,-0.008 0.0455,-0.008 0.0427,-0.0102 0.0434,-0.0138 0.0399,-0.0131 0.0402,-0.0166 0.0427,-0.0155 0.0434,-0.0219 0.0427,-0.0212 0.1076,-0.65864 -0.0787,0.0455 -0.0744,0.0423 -0.078,0.0328 -0.0751,0.0293 -0.0723,0.024 -0.0744,0.0159 -0.073,0.0134 -0.0723,0.0109 -0.0716,0.005 -0.0702,0.003 h -0.0723 l -0.0688,-0.003 -0.0706,-0.005 -0.0695,-0.008 -0.066,-0.008 -0.0705,-0.0106 -0.0536,-0.0109 -0.0529,-0.0187 -0.0547,-0.0236 -0.0473,-0.03 -0.0483,-0.0318 -0.0427,-0.0399 -0.0399,-0.0406 -0.0381,-0.0459 -0.0325,-0.0452 -0.0289,-0.0504 -0.0212,-0.0487 -0.0194,-0.0511 -0.0109,-0.0508 -0.004,-0.0511 0.002,-0.0452 0.006,-0.0346 h 1.73672 l 0.0138,-0.16334 0.0402,-0.22542 0.0183,-0.20356 -0.002,-0.18203"
       style="fill:#ffffff;fill-opacity:1;fill-rule:evenodd;stroke:none;stroke-width:0.03527778"
       id="path1244" />
  </g>
</svg>
