<?xml version="1.0" encoding="UTF-8" standalone="no"?>
<!-- Generator: Adobe Illustrator 16.0.0, SVG Export Plug-In . SVG Version: 6.00 Build 0)  -->

<svg
   xmlns:dc="http://purl.org/dc/elements/1.1/"
   xmlns:cc="http://creativecommons.org/ns#"
   xmlns:rdf="http://www.w3.org/1999/02/22-rdf-syntax-ns#"
   xmlns:svg="http://www.w3.org/2000/svg"
   xmlns="http://www.w3.org/2000/svg"
   xmlns:sodipodi="http://sodipodi.sourceforge.net/DTD/sodipodi-0.dtd"
   xmlns:inkscape="http://www.inkscape.org/namespaces/inkscape"
   version="1.1"
   id="Capa_1"
   x="0px"
   y="0px"
   width="155.416"
   height="155.416"
   viewBox="0 0 155.416 155.416"
   xml:space="preserve"
   sodipodi:docname="tranferencia.svg"
   inkscape:version="0.92.3 (2405546, 2018-03-11)"><metadata
   id="metadata41"><rdf:RDF><cc:Work
       rdf:about=""><dc:format>image/svg+xml</dc:format><dc:type
         rdf:resource="http://purl.org/dc/dcmitype/StillImage" /><dc:title></dc:title></cc:Work></rdf:RDF></metadata><defs
   id="defs39" /><sodipodi:namedview
   pagecolor="#ffffff"
   bordercolor="#666666"
   borderopacity="1"
   objecttolerance="10"
   gridtolerance="10"
   guidetolerance="10"
   inkscape:pageopacity="0"
   inkscape:pageshadow="2"
   inkscape:window-width="1366"
   inkscape:window-height="711"
   id="namedview37"
   showgrid="false"
   inkscape:zoom="1.3757083"
   inkscape:cx="206.62587"
   inkscape:cy="126.30177"
   inkscape:window-x="0"
   inkscape:window-y="0"
   inkscape:window-maximized="1"
   inkscape:current-layer="Capa_1" />
<g
   id="g4"
   transform="matrix(0.26807756,0,0,0.17074962,3.5302013,35.251432)"
   style="stroke-width:4.67401266">
	<path
   d="M 59.623385,127.98362 V 394.235 H 485.211 V 127.98362 Z M 458.61501,367.60539 H 86.223762 V 154.60972 H 458.61501 Z M 139.42188,354.29716 h 101.42299 c -20.70176,-18.04573 -34.92248,-52.78513 -34.92248,-93.18917 0,-40.40491 14.22072,-75.14255 34.92248,-93.18653 H 139.42188 c 0,22.07384 -17.87216,39.93696 -39.898368,39.93696 v 106.49915 c 22.025328,8.8e-4 39.898368,17.86575 39.898368,39.93959 z m 19.95007,-113.15765 c 11.01398,0 19.94831,8.94649 19.94831,19.96936 0,11.02463 -8.93433,19.96936 -19.94831,19.96936 -11.01573,0 -19.95007,-8.94473 -19.95007,-19.96936 0,-11.02287 8.93434,-19.96936 19.95007,-19.96936 z m 144.60792,113.15765 h 101.43526 c 0,-22.07384 17.87217,-39.93871 39.89574,-39.93871 V 207.8593 c -22.02357,0 -39.89574,-17.86312 -39.89574,-39.93696 H 303.97987 c 20.72982,18.04397 34.93826,52.78074 34.93826,93.18653 0,40.40316 -14.20844,75.14256 -34.93826,93.18829 z m 81.48607,-113.15765 c 11.01223,0 19.94831,8.94649 19.94831,19.96936 0,11.02463 -8.93608,19.96936 -19.94831,19.96936 -11.01924,0 -19.95181,-8.94473 -19.95181,-19.96936 0,-11.02287 8.93257,-19.96936 19.95181,-19.96936 z m -146.29637,6.6585 c 0,14.66117 11.92267,19.96761 19.94831,19.96761 h 6.65207 v 26.62171 h -19.95007 c -3.66372,0 -6.65031,2.99475 -6.65031,6.6585 0,3.66727 2.98659,6.6585 6.65031,6.6585 h 19.95007 v 6.65412 c 0,3.66726 2.98659,6.6585 6.64856,6.6585 3.66372,0 6.64768,-2.99124 6.64768,-6.6585 v -6.65412 h 6.65207 c 8.02739,0 19.95181,-5.30643 19.95181,-19.97199 v -13.30822 c 0,-14.66732 -11.92442,-19.96936 -19.95181,-19.96936 h -6.65207 v -26.6261 h 19.95182 c 3.66021,0 6.65206,-2.98948 6.65206,-6.65675 0,-3.66727 -2.99185,-6.65499 -6.65206,-6.65499 h -19.95182 v -6.6585 c 0,-3.66463 -2.98396,-6.65675 -6.64768,-6.65675 -3.66197,0 -6.64856,2.99124 -6.64856,6.65675 v 6.6585 h -6.65207 c -8.02564,0 -19.94831,5.30292 -19.94831,19.9676 z m 39.89662,19.96761 h 6.65207 c 2.98834,0.0781 6.64768,1.3029 6.64768,6.6585 v 13.30822 c 0,5.35999 -3.65934,6.58124 -6.64768,6.65499 h -6.65207 z m -26.59862,-33.2811 c 0,-5.35735 3.66372,-6.5786 6.65031,-6.65674 h 6.65207 v 26.6261 h -6.65207 c -2.98659,-0.0781 -6.65031,-1.30027 -6.65031,-6.65674 z"
   id="path2"
   inkscape:connector-curvature="0"
   style="stroke-width:4.67401266" />
</g>
<g
   id="g6"
   transform="translate(0,-329.795)">
</g>
<g
   id="g8"
   transform="translate(0,-329.795)">
</g>
<g
   id="g10"
   transform="translate(0,-329.795)">
</g>
<g
   id="g12"
   transform="translate(0,-329.795)">
</g>
<g
   id="g14"
   transform="translate(0,-329.795)">
</g>
<g
   id="g16"
   transform="translate(0,-329.795)">
</g>
<g
   id="g18"
   transform="translate(0,-329.795)">
</g>
<g
   id="g20"
   transform="translate(0,-329.795)">
</g>
<g
   id="g22"
   transform="translate(0,-329.795)">
</g>
<g
   id="g24"
   transform="translate(0,-329.795)">
</g>
<g
   id="g26"
   transform="translate(0,-329.795)">
</g>
<g
   id="g28"
   transform="translate(0,-329.795)">
</g>
<g
   id="g30"
   transform="translate(0,-329.795)">
</g>
<g
   id="g32"
   transform="translate(0,-329.795)">
</g>
<g
   id="g34"
   transform="translate(0,-329.795)">
</g>
<path
   inkscape:connector-curvature="0"
   d="m 26.943504,39.905322 c 0,0 -14.596373,3.79248 -22.1272346,10.91603 -7.5277073,7.12826 -3.98192735,16.96328 -3.98192735,16.96328 0,0 4.76502225,-9.37136 12.49403795,-14.08332 8.452503,-5.15492 18.661562,-6.25659 18.661562,-6.25659 l 5.046437,7.53939 16.94518,-16.48109 -32.084493,-6.1371 z"
   id="path4"
   style="stroke-width:0.99999994" /><path
   inkscape:connector-curvature="0"
   d="m 142.61727,103.12468 c -7.7786,5.56873 -19.58261,7.77647 -19.58261,7.77647 l -5.97637,-7.25837 -14.82285,17.29101 32.75196,4.4841 -5.97637,-7.25837 c 0,0 16.09176,-5.1975 22.70464,-12.68164 6.60914,-7.48868 2.34507,-17.28025 2.34507,-17.28025 0,0 -4.33045,9.8367 -11.44347,14.92705 z"
   id="path6"
   style="stroke-width:0.99999994" /></svg>