<?xml version="1.0" encoding="UTF-8" standalone="no"?>
<svg
   xmlns:dc="http://purl.org/dc/elements/1.1/"
   xmlns:cc="http://creativecommons.org/ns#"
   xmlns:rdf="http://www.w3.org/1999/02/22-rdf-syntax-ns#"
   xmlns:svg="http://www.w3.org/2000/svg"
   xmlns="http://www.w3.org/2000/svg"
   id="svg2928"
   version="1.1"
   viewBox="0 0 44.248917 27.65531"
   height=""
   width="">
  <defs
     id="defs2922" />
  <metadata
     id="metadata2925">
    <rdf:RDF>
      <cc:Work
         rdf:about="">
        <dc:format>image/svg+xml</dc:format>
        <dc:type
           rdf:resource="http://purl.org/dc/dcmitype/StillImage" />
        <dc:title></dc:title>
      </cc:Work>
    </rdf:RDF>
  </metadata>
  <g
     transform="translate(-33.816018,-210.60092)"
     id="layer1">
    <path
       d="m 78.064935,236.78161 c 0,0.81457 -0.660755,1.47462 -1.475317,1.47462 H 35.290629 c -0.814564,0 -1.474611,-0.66005 -1.474611,-1.47462 v -24.70538 c 0,-0.81491 0.660047,-1.47531 1.474611,-1.47531 h 41.298989 c 0.814562,0 1.475317,0.6604 1.475317,1.47531 v 24.70538"
       style="fill:#3957a7;fill-opacity:1;fill-rule:nonzero;stroke:none;stroke-width:0.03527778"
       id="path728" />
    <path
       d="m 54.178703,228.58271 h -2.161469 l 1.351139,-8.30228 h 2.161469 l -1.351139,8.30228"
       style="fill:#ffffff;fill-opacity:1;fill-rule:nonzero;stroke:none;stroke-width:0.03527778"
       id="path730" />
    <path
       d="m 50.198665,220.28043 -2.060575,5.71042 -0.244122,-1.22979 v 3.5e-4 l -0.726723,-3.73344 c 0,0 -0.08819,-0.74754 -1.025525,-0.74754 h -3.407128 l -0.03916,0.14076 c 0,0 1.041753,0.21625 2.2606,0.94862 l 1.877484,7.2129 h 2.252486 l 3.439583,-8.30228 h -2.326922"
       style="fill:#ffffff;fill-opacity:1;fill-rule:nonzero;stroke:none;stroke-width:0.03527778"
       id="path732" />
    <path
       d="m 64.822713,225.64618 1.13524,-3.10762 0.639585,3.10762 z m 2.37843,2.93653 h 1.984375 l -1.730375,-8.30228 h -1.737431 c -0.802924,0 -0.998361,0.61842 -0.998361,0.61842 l -3.223331,7.68386 h 2.253192 l 0.449791,-1.23296 h 2.748492 l 0.253648,1.23296"
       style="fill:#ffffff;fill-opacity:1;fill-rule:nonzero;stroke:none;stroke-width:0.03527778"
       id="path734" />
    <path
       d="m 61.664647,222.2768 0.307975,-1.78294 c 0,0 -0.951442,-0.36195 -1.943452,-0.36195 -1.072797,0 -3.620205,0.46885 -3.620205,2.7485 0,2.14524 2.990497,2.1717 2.990497,3.29776 0,1.12642 -2.682522,0.92534 -3.567289,0.21484 l -0.321733,1.86338 c 0,0 0.9652,0.46954 2.439811,0.46954 1.475316,0 3.700637,-0.76411 3.700637,-2.84233 0,-2.15864 -3.016248,-2.36008 -3.016248,-3.29847 0,-0.93874 2.105378,-0.81809 3.030007,-0.30833"
       style="fill:#ffffff;fill-opacity:1;fill-rule:nonzero;stroke:none;stroke-width:0.03527778"
       id="path736" />
    <path
       d="m 47.893968,224.76142 -0.726723,-3.73345 c 0,0 -0.08819,-0.74754 -1.025525,-0.74754 h -3.407128 l -0.03916,0.14076 c 0,0 1.637242,0.33902 3.207456,1.61008 1.501422,1.21567 1.991078,2.73015 1.991078,2.73015"
       style="fill:#f9a533;fill-opacity:1;fill-rule:nonzero;stroke:none;stroke-width:0.03527778"
       id="path738" />
  </g>
</svg>
