<?xml version="1.0" encoding="UTF-8" standalone="no"?>
<!-- Generator: Adobe Illustrator 15.1.0, SVG Export Plug-In . SVG Version: 6.00 Build 0)  -->

<svg
   xmlns:dc="http://purl.org/dc/elements/1.1/"
   xmlns:cc="http://creativecommons.org/ns#"
   xmlns:rdf="http://www.w3.org/1999/02/22-rdf-syntax-ns#"
   xmlns:svg="http://www.w3.org/2000/svg"
   xmlns="http://www.w3.org/2000/svg"
   xmlns:sodipodi="http://sodipodi.sourceforge.net/DTD/sodipodi-0.dtd"
   xmlns:inkscape="http://www.inkscape.org/namespaces/inkscape"
   version="1.2"
   id="Camada_1"
   x="0px"
   y="0px"
   width="600"
   height="260"
   viewBox="0 0 600 260"
   xml:space="preserve"
   sodipodi:docname="logo-page-login.svg"
   inkscape:version="0.92.3 (2405546, 2018-03-11)"><metadata
   id="metadata21"><rdf:RDF><cc:Work
       rdf:about=""><dc:format>image/svg+xml</dc:format><dc:type
         rdf:resource="http://purl.org/dc/dcmitype/StillImage" /><dc:title /></cc:Work></rdf:RDF></metadata><defs
   id="defs19">
	
	
</defs><sodipodi:namedview
   pagecolor="#ffffff"
   bordercolor="#666666"
   borderopacity="1"
   objecttolerance="10"
   gridtolerance="10"
   guidetolerance="10"
   inkscape:pageopacity="0"
   inkscape:pageshadow="2"
   inkscape:window-width="1366"
   inkscape:window-height="711"
   id="namedview17"
   showgrid="false"
   inkscape:zoom="0.85559921"
   inkscape:cx="-112.4125"
   inkscape:cy="87.855372"
   inkscape:window-x="0"
   inkscape:window-y="0"
   inkscape:window-maximized="1"
   inkscape:current-layer="Camada_1" />
<text
   transform="scale(0.76427428,1.3084308)"
   font-size="164.0788"
   id="text2"
   x="201.52264"
   y="165.0724"
   style="font-style:normal;font-variant:normal;font-weight:normal;font-stretch:normal;font-size:114.98838806px;font-family:Dyuthi;-inkscape-font-specification:Dyuthi;fill:#ff5a00;fill-opacity:1;stroke-width:0.81443232">CONSAGRE</text>







<text
   transform="scale(1.1921178,0.83884326)"
   font-size="36"
   id="text4"
   x="309.78671"
   y="301.65616"
   style="font-size:39.35264206px;font-family:CourierNewPSMT;fill:#ffffff;fill-opacity:1;stroke-width:1.27035439;">IMÓVEIS</text>







<path
   d="m 76.496074,170.83843 c -18.492253,0 -33.485263,14.78504 -33.485263,33.0203 0,18.23528 14.99301,33.02029 33.485263,33.02029 18.49226,0 33.485266,-14.78501 33.485266,-33.02029 0,-18.23526 -14.993006,-33.0203 -33.485266,-33.0203 z m 5.976236,31.44341 c -0.563551,0.98388 -0.773236,2.57424 -0.760135,4.36677 0.05248,6.38841 2.961904,16.11927 2.961904,16.11927 h -8.295951 -9.003676 c 0,0 5.373371,-15.82276 2.988117,-20.43212 -1.598906,-3.08639 -2.673574,-6.11885 -2.725998,-8.88179 -0.03932,-2.15643 0.537329,-4.17809 1.965864,-5.95712 0.98293,-1.213 3.944835,-2.33164 5.399581,-2.3586 3.695829,-0.0673 6.526676,-0.17519 9.042988,2.85727 1.245049,1.50951 1.716854,3.23464 1.66443,5.04064 -0.06551,3.03248 -1.572693,6.30756 -3.237124,9.24568 z"
   id="path6"
   inkscape:connector-curvature="0"
   style="fill:#ffffff;fill-opacity:1;stroke-width:0.99999982" />
<polygon
   stroke-miterlimit="10"
   points="381.5,135.21 381.5,203.5 251.5,203.5 251.5,135.18 316.5,82 "
   id="polygon8"
   transform="matrix(1.1052942,0,0,1.1989312,-271.94633,7.7086747)"
   style="fill:none;stroke:#ffffff;stroke-width:1.73737621;stroke-miterlimit:7;stroke-dasharray:none;stroke-opacity:1" />
<path
   style="fill:none;stroke:#ffffff;stroke-width:1.99999976;stroke-miterlimit:7;stroke-dasharray:none;stroke-opacity:1"
   inkscape:connector-curvature="0"
   id="path10"
   d="m 121.52735,68.2547 c 0,26.820091 -44.057025,97.71289 -44.057025,97.71289 0,0 -44.057026,-70.892799 -44.057026,-97.71289 0,-26.820091 19.729501,-48.556713 44.057026,-48.556713 24.327525,0 44.057025,21.736622 44.057025,48.556713 z"
   stroke-miterlimit="10" /><ellipse
   style="fill:none;stroke:#ffffff;stroke-width:1.99999976;stroke-miterlimit:7;stroke-dasharray:none;stroke-opacity:1"
   id="ellipse12"
   ry="20.981297"
   rx="19.033165"
   cy="67.055771"
   cx="77.470329"
   stroke-miterlimit="10" />
<path
   style="fill:#ffffff;stroke:#ffffff;stroke-width:1.99999964;stroke-linecap:butt;stroke-linejoin:miter;stroke-miterlimit:4;stroke-dasharray:none;stroke-opacity:1"
   d="M 149.72341,251.69119 H 374.42715"
   id="path23"
   inkscape:connector-curvature="0" /></svg>